<?xml version="1.0" encoding="UTF-8" standalone="no"?>
<svg
   version="1.1"
   id="svg2"
   xml:space="preserve"
   width="5333.3335"
   height="5333.3335"
   viewBox="0 0 5333.3335 5333.3335"
   sodipodi:docname="astronaut.svg"
   inkscape:version="1.1.2 (1:1.1+202202050950+0a00cf5339)"
   xmlns:inkscape="http://www.inkscape.org/namespaces/inkscape"
   xmlns:sodipodi="http://sodipodi.sourceforge.net/DTD/sodipodi-0.dtd"
   xmlns="http://www.w3.org/2000/svg"
   xmlns:svg="http://www.w3.org/2000/svg"
   xmlns:rdf="http://www.w3.org/1999/02/22-rdf-syntax-ns#"
   xmlns:cc="http://creativecommons.org/ns#"
   xmlns:dc="http://purl.org/dc/elements/1.1/"><metadata
     id="metadata8"><rdf:RDF><cc:Work
         rdf:about=""><dc:format>image/svg+xml</dc:format><dc:type
           rdf:resource="http://purl.org/dc/dcmitype/StillImage" /></cc:Work></rdf:RDF></metadata><defs
     id="defs6" /><sodipodi:namedview
     pagecolor="#ffffff"
     bordercolor="#666666"
     borderopacity="1"
     objecttolerance="10"
     gridtolerance="10"
     guidetolerance="10"
     inkscape:pageopacity="0"
     inkscape:pageshadow="2"
     inkscape:window-width="1279"
     inkscape:window-height="704"
     id="namedview4"
     inkscape:pagecheckerboard="0"
     showgrid="false"
     inkscape:zoom="0.1402723"
     inkscape:cx="2302.6641"
     inkscape:cy="2238.5032"
     inkscape:window-x="85"
     inkscape:window-y="27"
     inkscape:window-maximized="1"
     inkscape:current-layer="g12" /><g
     id="g10"
     inkscape:groupmode="layer"
     inkscape:label="ink_ext_XXXXXX"
     transform="matrix(1.3333333,0,0,-1.3333333,0,5333.3333)"><g
       id="g12"
       transform="matrix(0.1,0,0,0.1,-30.245748,234.40455)"><path
         d="M 0,0 C -13326.178,-5885.7477 -30271.099,40446.273 0,40000 Z"
         style="fill:#ffffff;fill-opacity:1;fill-rule:nonzero;stroke:none"
         id="path14"
         sodipodi:nodetypes="ccc" /><path
         d="m 21119.8,3286.4 c -4005.7,0 -7253,382.8 -7253,855.2 0,230 770.5,438.8 2023.6,592.6 70.7,-114.2 161.9,-207 258.1,-284.6 267,-210.5 571.1,-318 869.8,-391.1 l 112.6,-28.2 c 37.6,-7.8 75.2,-13.3 112.9,-20.1 l 225.9,-38.3 225.8,-22.8 c 75.2,-6.8 150.7,-17.4 225.6,-18.4 l 225.1,-8.9 c 57.7,-2.4 115.4,-5.2 172.9,-5.2 17.3,0 34.5,0.3 51.7,0.9 149.4,2.6 298.7,2.5 448,7.6 298.3,12.8 599,37.6 901.6,95.5 300.6,59.8 612.6,155.2 887.1,353.6 135.9,99.5 255.1,228.2 344.7,372.1 24.7,34.9 42.4,72.9 62.2,110.1 9.7,19 19.5,36.6 28.9,56.8 l 26.4,65.4 c 2.1,6 4.1,12.1 6.1,18.1 7.3,0 14.9,0 22.2,0 3.3,-9.7 6.7,-19.5 10.2,-29.4 8.8,-21.5 17.3,-44.3 26.9,-64.7 l 30.4,-57.2 30.7,-57.1 c 10.3,-19 24,-36 35.9,-54 96.6,-143.4 222.5,-266.5 361.2,-358.4 138.6,-92.9 286.1,-161.7 434.9,-217.5 149.4,-51.5 300.1,-93.6 450.8,-123.2 301.7,-62.4 602.4,-88.6 901.3,-105.2 149.4,-9.5 299,-8.5 448.5,-11.2 54.2,-0.1 108.2,-2.1 162.3,-2.1 20.7,0 41.5,0.3 62.3,1.1 l 225.5,9 c 300.5,10.1 603.6,48 905.6,112.1 l 226.2,59.2 c 74.9,25.1 149.5,53.7 224.1,80.8 73.9,31.7 146.8,69.9 219.5,106.8 l 105.6,68.9 c 17.4,11.8 35.2,22.6 52.3,35.3 l 49.5,42.4 c 97.5,80.4 188.1,182.3 251.4,306.2 1274.3,-154.1 2059.6,-364.7 2059.6,-596.9 0,-472.4 -3247.2,-855.2 -7252.9,-855.2"
         style="fill:#b3b3b3;fill-opacity:1;fill-rule:nonzero;stroke:none"
         id="path16" /><path
         d="m 26201.1,20472.1 v -7008.2 c 0,-789.7 -640.1,-1429.7 -1429.8,-1429.7 h -7369.8 c -789.7,0 -1429.7,640 -1429.7,1429.7 v 7008.2 c 0,357.3 131.1,683.7 348.3,934.6 261.3,303.2 649,495.1 1081.4,495.1 h 7369.8 c 346.9,0 664.3,-123.5 911.8,-328.3 316.5,-262.3 518,-658.6 518,-1101.4"
         style="fill:#ffffff;fill-opacity:1;fill-rule:nonzero;stroke:none"
         id="path18" /><path
         d="m 24771.4,22282.1 h -7369.9 c -998,0 -1809.8,-811.9 -1809.8,-1809.8 v -7008.5 c 0,-997.9 811.8,-1809.8 1809.8,-1809.8 h 7369.9 c 998,0 1809.9,811.9 1809.9,1809.8 v 7008.5 c 0,997.9 -811.9,1809.8 -1809.9,1809.8 m 0,-380.1 c 789.6,0 1429.7,-640.1 1429.7,-1429.7 v -7008.5 c 0,-789.6 -640.1,-1429.7 -1429.7,-1429.7 h -7369.9 c -789.6,0 -1429.7,640.1 -1429.7,1429.7 v 7008.5 c 0,789.6 640.1,1429.7 1429.7,1429.7 h 7369.9"
         style="fill:#000000;fill-opacity:1;fill-rule:nonzero;stroke:none"
         id="path20" /><path
         d="m 19558.7,5976 c -34.6,0 -69.5,9.4 -101,29.1 -877.6,551.3 -2160.9,306.4 -2173.7,303.8 -103.2,-20.3 -202.9,46.6 -223.3,149.6 -20.3,103 46.7,203 149.7,223.3 58.6,11.5 1445.5,275.8 2449.5,-354.8 88.9,-55.8 115.7,-173.2 59.9,-262 -36.1,-57.5 -97.9,-89 -161.1,-89"
         style="fill:#371a45;fill-opacity:1;fill-rule:nonzero;stroke:none"
         id="path22" /><path
         d="m 21088.6,7962.5 c 0,0 -2,-119.9 -2,-312.4 -0.5,190.6 -1.9,312.4 -1.9,312.4 v 3435.9 h 3.9 V 7962.5 m 3837.9,-1467.4 c 0,0 643.4,2737 864.6,4819 69.2,652.1 104.3,1311.5 111.1,1968 2,177.8 2,355.2 -0.4,532.2 -4.4,424.9 -20.5,847.5 -44.9,1265.1 -121.3,2052.3 -459.1,3979.8 -782.7,5449.2 -123.3,557.1 -244.2,1048.3 -350.9,1455.7 -213.4,812 -368.9,1290.1 -368.9,1290.1 h -6535.5 c 0,0 -147.7,-454.2 -352.4,-1228.6 -109.1,-414.3 -234.4,-920.7 -362.6,-1498.2 -326,-1473.8 -666.2,-3412.5 -787.5,-5476.4 -24.4,-411.9 -39.5,-828.6 -44.4,-1247.7 -1.9,-178.4 -2.4,-357.2 -0.5,-536.6 6.9,-657.9 41.5,-1319.2 110.7,-1972.8 221.7,-2082 865,-4819 865,-4819 0,0 -1009.3,-331.9 -1239.8,-1041.5 -39,-119.9 -55.6,-251 -41.4,-392.8 2.4,-26.3 70.1,-1050.3 2803.2,-947.9 1158.5,43.4 1817.4,265.1 2099.6,874.8 98.4,213.9 153.5,672.6 183.2,1151.1 29.3,466.9 34.6,1067.8 34.6,1449.9 1.5,-703.2 27.8,-2188.7 218.4,-2601 282.2,-609.7 1069.7,-831.4 2228.2,-874.8 2732.6,-102.4 2671.7,921.6 2674.1,947.9 99,979.6 -1280.8,1434.3 -1280.8,1434.3"
         style="fill:#ffffff;fill-opacity:1;fill-rule:nonzero;stroke:none"
         id="path24" /><path
         d="m 18321.9,4296.7 c -54.9,0 -109.5,2.8 -164.1,5 l -213.9,8.5 c -71.7,0.8 -141.5,10.9 -212.1,17.2 l -211.4,21.2 -207.1,35.4 c -34.5,6.1 -69.4,11 -103.4,18.1 l -100.5,25.4 c -267.7,63.8 -527.8,163.1 -722,317.8 -96.1,76.2 -173.8,168.7 -212,262.9 -9.9,22.7 -15.9,46.4 -19.2,63.2 -1.1,5.1 -1.7,24.2 -2.5,38.2 l -2.6,44.8 c 1.6,45.7 3.6,91.5 11.5,136.4 176,-131.5 502.2,-270.2 1105.1,-353 329.6,-45.2 665,-70.4 988.6,-70.4 1056.7,0 1987.6,268.4 2183.9,984.2 192.8,703.7 510.4,4485.2 -558.3,4941.7 -1652.5,706.3 -2259.1,1274 -1799.6,1365.5 25,5 54.5,7.2 89.8,7.2 293.5,0 990.3,-154.3 2914.4,-154.3 1923.9,0 2620.8,154.3 2914.3,154.3 35.3,0 64.8,-2.2 89.8,-7.2 459.5,-91.5 -147.1,-659.2 -1799.5,-1365.5 -1068.7,-456.5 -751.2,-4238 -558.3,-4941.7 196.1,-715.7 1127.3,-984.2 2183.8,-984.2 323.7,0 658.9,25.1 988.6,70.4 603.4,82.9 929.7,221.7 1105.5,353.3 8.2,-45.7 10.2,-92.4 11.6,-139.1 l -5.6,-102.2 c -0.9,-9.7 -1.4,-19.6 -4.3,-31.1 -1.8,-11 -3.6,-22.2 -8.3,-33.9 -27.1,-93.4 -94.9,-187.1 -188.4,-262.7 l -33.7,-29.6 c -12.3,-9.1 -26.1,-17.1 -39,-25.8 l -78.5,-51.7 c -58.3,-28.5 -115.4,-59.1 -176,-85.2 -63.4,-22.5 -125.8,-46.7 -189.7,-68.4 l -199.6,-52.1 c -271.4,-57.2 -552.7,-93.5 -838.4,-102.8 l -214.1,-8.6 c -19.5,-0.8 -39,-1.1 -58.6,-1.1 -52.1,0 -104.6,2.1 -156.8,2.2 -143.7,2.6 -287.5,1.4 -431,10.6 -286.5,15.8 -572,41.3 -845.2,98.1 -137.2,26.8 -269.4,64.4 -397.4,108.1 -125.7,47.3 -245.1,103.9 -350.5,174.3 -106,70.1 -192.7,157.4 -260,256.7 -8.2,12.6 -18.3,24 -25.1,37.4 l -21.2,39.9 -21.5,39.7 c -6.1,12.8 -9.9,24.7 -15.2,36.9 -19,53.7 -36.3,117.1 -49.4,184 -53.8,268.2 -77.2,559.7 -96.5,847.2 -35.8,577.9 -43.9,1163 -40.6,1745.4 l 0.8,3294.7 c 935.6,35 1562.4,313.7 1562.4,313.7 v 0 0 c 0,0 -471.5,372.5 -1754.2,372.5 -1282.7,0 -1750.6,-372.5 -1750.6,-372.5 v 0 0 c 0,0 623.7,-278.7 1558.8,-313.7 l 0.8,-3289.6 c 3.4,-581.5 -4.7,-1165.7 -40.1,-1742.9 -19,-287.2 -42.5,-577.9 -95.2,-846.7 -13.3,-66.5 -29.7,-130.5 -48.5,-185.9 l -14.7,-36.5 c -6.1,-13 -14.3,-27.3 -21.2,-40.9 -14.8,-27.3 -27.4,-56.3 -45.7,-80.9 -65.2,-104.5 -148.2,-194.9 -248.8,-268.7 -202.3,-147 -462.8,-233.3 -734.3,-286.3 -273,-52.2 -557.7,-76.5 -844.4,-88.8 -143.3,-4.7 -287,-4.6 -430.5,-7.2 -16.9,-0.6 -33.7,-0.9 -50.4,-0.9"
         style="fill:#c3bac7;fill-opacity:1;fill-rule:nonzero;stroke:none"
         id="path26" /><path
         d="m 17188.5,20404.4 c -123.2,-1169.9 -363.9,-2310.9 -496.1,-3470.7 -68.2,-578.9 -127.3,-1158.8 -160.8,-1740 -4.5,-72.7 -10.4,-145.2 -13.8,-217.9 l -10.2,-218 c -6.2,-145.3 -16.2,-290.6 -19.2,-435.9 l -10.9,-436.1 c -4.4,-145.4 -1,-290.7 -2,-436 -3.5,-290.8 10.7,-581 17.3,-871.4 l 24.7,-434.8 c 4.6,-72.4 7.5,-145 13.4,-217.3 l 19.3,-216.7 c 44.5,-578.3 125.6,-1154.8 215,-1731.2 183,-1151.6 411.8,-2301.4 669.6,-3439 l 38.7,-170.9 -166,-56.3 c -25.8,-8.7 -60.4,-21.8 -91,-34.2 -31.5,-12.5 -63,-26.1 -94.3,-40 -62.7,-27.9 -124.4,-58.3 -184.7,-90.7 -120.5,-64.7 -235.9,-137.7 -340.2,-220.2 -105.1,-81.9 -197.7,-174.4 -273.2,-274.5 -72.9,-101.1 -129.1,-209.8 -153.3,-324.2 -14.9,-56.8 -17.7,-115.4 -19.7,-174 l 2.6,-44.8 c 0.8,-14 1.4,-33.1 2.5,-38.2 3.3,-16.8 9.3,-40.5 19.2,-63.2 38.2,-94.2 115.9,-186.7 212,-262.9 194.2,-154.7 454.3,-254 722,-317.8 l 100.5,-25.4 c 34,-7.1 68.9,-12 103.4,-18.1 l 207.1,-35.4 211.4,-21.2 c 70.6,-6.3 140.4,-16.4 212.1,-17.2 l 213.9,-8.5 c 71.3,-2.9 142.5,-6.7 214.5,-4.1 143.5,2.6 287.2,2.5 430.5,7.2 286.7,12.3 571.4,36.6 844.4,88.8 271.5,53 532,139.3 734.3,286.3 100.6,73.8 183.6,164.2 248.8,268.7 18.3,24.6 30.9,53.6 45.7,80.9 6.9,13.6 15.1,27.9 21.2,40.9 l 14.7,36.5 c 18.8,55.4 35.2,119.4 48.5,185.9 52.7,268.8 76.2,559.5 95.2,846.7 35.4,577.2 43.5,1161.4 40.1,1742.9 l -0.9,3516.4 v 190.1 h 190.1 3.6 190.1 v -190.1 l -0.9,-3521.5 c -3.3,-582.4 4.8,-1167.5 40.6,-1745.4 19.3,-287.5 42.7,-579 96.5,-847.2 13.1,-66.9 30.4,-130.3 49.4,-184 5.3,-12.2 9.1,-24.1 15.2,-36.9 l 21.5,-39.7 21.2,-39.9 c 6.8,-13.4 16.9,-24.8 25.1,-37.4 67.3,-99.3 154,-186.6 260,-256.7 105.4,-70.4 224.8,-127 350.5,-174.3 128,-43.7 260.2,-81.3 397.4,-108.1 273.2,-56.8 558.7,-82.3 845.2,-98.1 143.5,-9.2 287.3,-8 431,-10.6 71.8,-0.2 144,-4 215.4,-1.1 l 214.1,8.6 c 285.7,9.3 567,45.6 838.4,102.8 l 199.6,52.1 c 63.9,21.7 126.3,45.9 189.7,68.4 60.6,26.1 117.7,56.7 176,85.2 l 78.5,51.7 c 12.9,8.7 26.7,16.7 39,25.8 l 33.7,29.6 c 93.5,75.6 161.3,169.3 188.4,262.7 4.7,11.7 6.5,22.9 8.3,33.9 2.9,11.5 3.4,21.4 4.3,31.1 l 5.6,102.2 c -1.8,58.8 -4.5,117.5 -19.2,174.3 -24,114.7 -80,223.6 -152.5,325.1 -75.3,100.5 -167.7,193.5 -272.9,275.8 -104.3,82.9 -219.7,156.4 -340.4,221.5 -60.3,32.6 -122.1,63.1 -184.8,91.3 -61.4,27.5 -129.3,55.3 -185.8,74.8 l -164,56.6 38.5,167.4 c 158,686.4 303,1380 435.8,2073.4 131.8,693.9 253.2,1389.9 347,2087.5 191.3,1392.9 222.5,2802.4 142.5,4207.8 -82.5,1405.6 -275.1,2804.5 -531.7,4191.9 -63.8,347 -133.5,693.9 -204.3,1035.5 -15.7,85.6 -40.9,171.6 -61.5,257.3 l -64.9,257.5 -129.8,514.9 -510.4,2061.9 176.8,-148.1 -1740.9,128.7 c -290,22.9 -579.7,51 -868.9,85.7 -289.2,34.6 -578.1,74.3 -865.9,130 -51.9,10 -85.8,60.2 -75.8,112.1 8.6,44.1 46.2,75.3 89.1,77.5 292.7,15.1 584.3,14.2 875.5,8.3 291.2,-5.8 582,-18.3 872.4,-35.8 l 1741.9,-114.6 141.4,-9.3 35.4,-138.7 526.8,-2063.4 129.6,-516.4 64.8,-258.2 c 20.7,-86.5 45.5,-170.9 61.8,-259.7 72.9,-352.7 142.3,-700.9 206.5,-1051.2 259.3,-1400.6 445.4,-2817.7 525.1,-4243.8 77,-1425.3 37.4,-2863.4 -158.8,-4280.7 -95.1,-707.7 -217.6,-1409.1 -350.3,-2108.1 -133.9,-699.1 -279.1,-1393.7 -439.1,-2089 l -125.6,224 c 82.2,-28.4 149.9,-56.8 222.5,-89.1 71.1,-31.9 140.9,-66.4 209.6,-103.4 137.3,-74.2 270.6,-158.5 395.9,-258.1 125.7,-98.7 242.9,-214.3 343.3,-348.9 98.1,-136 179.8,-293.3 217,-466.4 21.1,-85.7 27,-174.4 28.4,-262 l -3.4,-65 -2,-32.5 c -1.3,-16.7 0.8,-4 -0.6,-20 -1.8,-26.9 -4.4,-53.5 -9.6,-77.9 -4.3,-25.2 -9.5,-49.9 -17.3,-72.8 -55.8,-189.5 -175.5,-338.3 -307.8,-447.4 l -49.5,-42.4 c -17.1,-12.7 -34.9,-23.5 -52.3,-35.3 l -105.6,-68.9 c -72.7,-36.9 -145.6,-75.1 -219.5,-106.8 -74.6,-27.1 -149.2,-55.7 -224.1,-80.8 l -226.2,-59.2 c -302,-64.1 -605.1,-102 -905.6,-112.1 l -225.5,-9 c -75.2,-2.9 -149.7,0.9 -224.6,1 -149.5,2.7 -299.1,1.7 -448.5,11.2 -298.9,16.6 -599.6,42.8 -901.3,105.2 -150.7,29.6 -301.4,71.7 -450.8,123.2 -148.8,55.8 -296.3,124.6 -434.9,217.5 -138.7,91.9 -264.6,215 -361.2,358.4 -11.9,18 -25.6,35 -35.9,54 l -30.7,57.1 -30.4,57.2 c -9.6,20.4 -18.1,43.2 -26.9,64.7 -30.2,84.5 -50.2,163.3 -65.7,240.3 -61.1,307.4 -83.1,602.6 -103.6,900 -36.7,593.2 -44.6,1182.1 -41.3,1772.9 l 0.8,3518.3 190.1,-190.1 h -3.6 l 190.1,190.1 0.8,-3513.1 c 3.4,-589.9 -4.5,-1177.9 -40.8,-1770.2 -20.1,-296.9 -42.4,-591.8 -102.1,-898.3 -15.6,-77 -34.7,-155.4 -63.2,-238.6 l -26.4,-65.4 c -9.4,-20.2 -19.2,-37.8 -28.9,-56.8 -19.8,-37.2 -37.5,-75.2 -62.2,-110.1 -89.6,-143.9 -208.8,-272.6 -344.7,-372.1 -274.5,-198.4 -586.5,-293.8 -887.1,-353.6 -302.6,-57.9 -603.3,-82.7 -901.6,-95.5 -149.3,-5.1 -298.6,-5 -448,-7.6 -74.5,-2.6 -149.6,1.2 -224.6,4.3 l -225.1,8.9 c -74.9,1 -150.4,11.6 -225.6,18.4 l -225.8,22.8 -225.9,38.3 c -37.7,6.8 -75.3,12.3 -112.9,20.1 l -112.6,28.2 c -298.7,73.1 -602.8,180.6 -869.8,391.1 -131.3,105.9 -253.4,240.2 -326.5,418.4 -18.2,44.7 -32.4,92 -41.8,147.2 -4.6,31.1 -4.3,48.7 -5.9,71.2 l -3.3,64.9 c 1.7,87.6 7.7,176.1 29.1,261.6 37.5,172.8 119.7,329.5 217.4,465.4 100.2,134.3 217.2,249.9 342.6,348.6 125.1,99.6 258.2,184 395.3,258.3 68.6,37.2 138.3,71.8 209.2,103.8 35.6,15.9 71.3,31.4 107.7,46.1 37.3,15.1 71.1,28.3 114.6,43.2 l -127.3,-227.1 c -264.9,1149 -498.4,2300.2 -687.9,3464.6 -191.8,1162.3 -307.2,2350.4 -302.9,3532.7 -7.8,1183.4 84.1,2363.9 234.5,3533.8 74.4,585.2 164.8,1168 271.5,1747.4 109.7,578.8 243,1153.3 427.9,1714.5 16.4,50.1 70.4,77.4 120.6,61 43.5,-14.3 69.8,-57 65.2,-100.8"
         style="fill:#000000;fill-opacity:1;fill-rule:nonzero;stroke:none"
         id="path28" /><path
         d="m 24889.4,6308.9 -136.1,13.8 c -46.9,4.9 -94,8.5 -141.3,12.3 -94.5,7.5 -189.3,13.4 -284.1,16.8 -189.7,8.3 -379.3,6.5 -568.1,-3.9 -188.9,-12 -375,-39.9 -559.2,-79.9 -184,-41.7 -360.6,-105.1 -535.5,-182.4 l -5.5,-2.5 c -48.1,-21.3 -104.3,0.5 -125.6,48.6 -18.3,41.4 -4.7,88.8 30,114.8 167,124.9 351.9,230.5 548.3,305.2 48.6,20.4 98.9,34.2 148.5,51.6 l 75,24.2 c 25.2,7.1 50.6,12.9 75.9,19.4 50.7,12.2 101.5,26.4 152.6,36.8 l 154.1,27.5 c 206,32.4 414.1,46 621.4,42.9 103.6,-2.7 207.1,-8.2 310.3,-20 104.5,-11.2 203.1,-26.1 313,-52.3 102.1,-24.3 165.1,-126.8 140.8,-228.9 -22.3,-93.8 -110.6,-154.7 -204,-145.1 l -10.5,1.1"
         style="fill:#000000;fill-opacity:1;fill-rule:nonzero;stroke:none"
         id="path30" /><path
         d="m 17230.8,6681.8 c 57,13.6 105.8,23.1 158.2,31.8 51.5,8.5 103.2,15.5 154.7,21.4 103.2,11.5 206.6,18.4 310.3,20.8 207.4,5.1 415.6,-8.5 622.1,-39 206.4,-31.3 410.7,-85.4 607.1,-159.8 196.5,-75.5 382,-181.8 546.6,-310.5 41.6,-32.4 48.9,-92.4 16.5,-133.9 -27,-34.6 -73.1,-45.5 -111.7,-29.5 l -5.8,2.5 c -177.2,73.5 -353.2,136.3 -537.1,177.1 -184.1,38.5 -369.5,68.1 -558.2,79.6 -188.4,12.4 -377.8,14.1 -567.4,7.9 -94.8,-3.7 -189.7,-8.3 -284.1,-16.1 -93.4,-5.7 -191.9,-16.7 -277.6,-25.2 l -10.6,-1.1 c -104.5,-10.4 -197.6,65.9 -208,170.3 -9.5,95.8 53.9,182.1 145,203.7"
         style="fill:#000000;fill-opacity:1;fill-rule:nonzero;stroke:none"
         id="path32" /><path
         d="m 22939.6,12704.1 h -3978.3 c -400.6,0 -728.2,340.6 -728.2,756.8 v 0.3 c 150.5,-180.1 376.6,-294.9 629.1,-294.9 h 1717.2 v 0 0 h 2459 c 252.6,0 478.9,114.9 629.3,295.1 v -0.5 c 0,-416.2 -328,-756.8 -728.1,-756.8 m -5397,948.5 c -69.3,0 -138.3,1.2 -206.9,3.4 h 403.8 c -65.5,-2.3 -131.3,-3.4 -196.9,-3.4 m 7103.6,0.2 c -284.5,0 -571.3,20.2 -830.3,73.9 27.2,81.5 41.9,168.5 41.9,259 v 191.4 c 250.5,-44.8 520.7,-62.2 789.6,-62.2 355.1,0 707.9,30.4 1009.9,68.4 13.5,1.6 26.8,3.6 40.1,5.9 4.4,-152.1 7.4,-304.2 9,-456.3 -23.7,-5.7 -48,-10.1 -72.7,-13.2 -288.1,-36.2 -636.1,-66.9 -987.5,-66.9"
         style="fill:#cdc6d0;fill-opacity:1;fill-rule:nonzero;stroke:none"
         id="path34" /><path
         d="m 25706.4,13732.9 c -1.6,152.1 -4.6,304.2 -9,456.3 68,11.8 133.6,31.4 195.9,58.4 4.1,-144.1 7,-288.6 8.5,-433.3 -59.8,-36.8 -125.3,-64.6 -195.4,-81.4"
         style="fill:#000000;fill-opacity:1;fill-rule:nonzero;stroke:none"
         id="path36" /><path
         d="m 18756.8,14494 c -611.2,-257 -1557,-203.2 -2201.9,-122.2 -386.7,48.6 -658.2,419.3 -601.3,819.5 v 0 c 52,365.3 361.6,630.9 716.7,613.6 603.2,-29.4 1507.9,-43.1 2080.8,88.9 l 5.7,-1399.8"
         style="fill:#ffffff;fill-opacity:1;fill-rule:nonzero;stroke:none"
         id="path38" /><path
         d="m 16637.4,15615.6 c -247.6,0 -458.4,-190 -495.6,-451 -21.1,-148.2 16.4,-294 105.5,-410.8 82.8,-108.2 200.4,-176.9 331.3,-193.4 916.4,-115.1 1663.8,-76.4 2104.6,108.8 76.1,32 134.2,143.9 159.5,307 45.6,294.3 -32.8,621.8 -99,721.3 -584.7,-123 -1450.6,-113.2 -2082.6,-82.5 -7.9,0.4 -15.8,0.6 -23.7,0.6 m 903.7,-1500.7 c -355.1,0 -707.8,30.4 -1009.9,68.4 -232.8,29.2 -440.9,149.9 -586,339.8 -149.2,195.5 -214.8,448.8 -179.7,695 66.2,464.9 459.5,799 914,776.6 885.4,-43.1 1606,-13.2 2029,84.3 90.7,20.9 316.3,25 449.4,-387.5 147.1,-455.9 115.2,-1186.6 -327.4,-1372.7 -363,-152.6 -828.2,-203.9 -1289.4,-203.9"
         style="fill:#371a45;fill-opacity:1;fill-rule:nonzero;stroke:none"
         id="path40" /><path
         d="m 23431.7,14494 c 611.2,-257 1557,-203.2 2201.9,-122.2 386.7,48.6 658.2,419.3 601.3,819.5 v 0 c -52,365.3 -361.6,630.9 -716.7,613.6 -603.2,-29.4 -1507.9,-43.1 -2080.8,88.9 l -5.7,-1399.8"
         style="fill:#ffffff;fill-opacity:1;fill-rule:nonzero;stroke:none"
         id="path42" /><path
         d="m 24651.3,14495.4 c -301.1,0 -568.4,23.1 -793.5,69 v 489.3 c 247.4,-47.3 518.3,-65.3 787.1,-65.3 351.9,0 700.4,30.8 988.8,67 154.1,19.5 290.2,90.2 394.3,193.6 8.3,-27.1 14.6,-55.3 18.7,-84.4 21.1,-148.2 -16.4,-294 -105.5,-410.8 -82.7,-108.2 -200.4,-176.9 -331.3,-193.4 -346.2,-43.5 -668.1,-65 -958.6,-65"
         style="fill:#cdc6d0;fill-opacity:1;fill-rule:nonzero;stroke:none"
         id="path44" /><path
         d="m 23444.8,15697.5 c -66.2,-99.5 -144.6,-427 -99,-721.3 25.3,-163.1 83.5,-275 159.5,-307 440.8,-185.3 1188.2,-223.9 2104.6,-108.8 130.9,16.5 248.6,85.2 331.3,193.4 89.1,116.8 126.6,262.6 105.5,410.8 -38.3,269.3 -261.3,463.4 -519.3,450.4 -632,-30.7 -1497.8,-40.6 -2082.6,82.5 m 1202.6,-1582.6 c -461.3,0 -926.4,51.3 -1289.4,203.9 -442.6,186.1 -474.5,916.8 -327.4,1372.7 133.1,412.5 358.7,408.6 449.4,387.5 423.1,-97.5 1143.6,-127.4 2028.9,-84.3 455.6,22 847.9,-311.7 914.1,-776.6 35.1,-246.2 -30.4,-499.5 -179.7,-695 -145.1,-189.9 -353.2,-310.6 -586,-339.8 -302,-38 -654.8,-68.4 -1009.9,-68.4"
         style="fill:#000000;fill-opacity:1;fill-rule:nonzero;stroke:none"
         id="path46" /><path
         d="m 23667.8,16356.4 v -2243.3 c 0,-416.3 -327.9,-756.9 -728.4,-756.9 h -3977.9 c -400.9,0 -728.4,340.6 -728.4,756.9 v 2243.3 c 0,415.9 327.5,756.5 728.4,756.5 h 3977.9 c 319.9,0 593.7,-217.5 690.8,-517.2 24.2,-75.2 37.6,-155.6 37.6,-239.3"
         style="fill:#ffffff;fill-opacity:1;fill-rule:nonzero;stroke:none"
         id="path48" /><path
         d="m 23038.4,13546.4 h -2268.9 v 645.5 c 286.8,17.7 580.3,72.9 874.2,178.1 114.2,41 231.3,98.9 346.8,166.9 109.7,-62 235.5,-97.2 369.1,-97.2 353.7,0 652.6,247.1 742.8,582.7 22.1,-217.1 59.8,-440.3 121.6,-440.3 1,0 1.9,0 2.9,0.1 120.3,13.3 197.9,238.1 250.8,533.8 v -1130.3 c 0,-242.2 -197.1,-439.3 -439.3,-439.3 m -2649.1,0 h -1527.1 c -111,0 -212.5,41.4 -289.9,109.6 h 666.3 c 153.7,0 278.8,119.9 278.8,267.2 v 406.1 c 273,-73.4 566.5,-125.6 871.9,-139.9 v -643"
         style="fill:#cdc6d0;fill-opacity:1;fill-rule:nonzero;stroke:none"
         id="path50" /><path
         d="m 18862.2,16922.8 c -242.2,0 -439.2,-197.1 -439.2,-439.3 v -2497.8 c 0,-242.2 197,-439.3 439.2,-439.3 h 4176.2 c 242.2,0 439.3,197.1 439.3,439.3 v 2497.8 c 0,242.2 -197.1,439.3 -439.3,439.3 h -4176.2 m 4176.2,-3756.5 h -4176.2 c -451.8,0 -819.4,367.6 -819.4,819.4 v 2497.8 c 0,451.8 367.6,819.4 819.4,819.4 h 4176.2 c 451.8,0 819.4,-367.6 819.4,-819.4 v -2497.8 c 0,-451.8 -367.6,-819.4 -819.4,-819.4"
         style="fill:#000000;fill-opacity:1;fill-rule:nonzero;stroke:none"
         id="path52" /><path
         d="m 22987.8,15234.6 c 0,-360.3 -281.3,-652.4 -628.2,-652.4 -347,0 -628.2,292.1 -628.2,652.4 0,360.3 281.2,652.4 628.2,652.4 346.9,0 628.2,-292.1 628.2,-652.4"
         style="fill:#22a7f0;fill-opacity:1;fill-rule:nonzero;stroke:none"
         id="path54" /><path
         d="m 22987.9,15234.4 c 0,-44.4 -4.1,-87.6 -12.3,-129.5 -58.1,298.8 -312,523.6 -616.1,523.6 -304.2,0 -558.1,-224.8 -615.7,-523.6 -8.2,41.9 -12.3,85.1 -12.3,129.5 0,360.3 281,652.7 628,652.7 346.9,0 628.4,-292.4 628.4,-652.7"
         style="fill:#ffffff;fill-opacity:1;fill-rule:nonzero;stroke:none"
         id="path56" /><path
         d="m 22359.6,14724.8 c -169.1,0 -318.2,91.2 -405.2,229.1 54.1,9.1 108.1,18.8 162.3,29 74.8,-32.6 156.8,-50.6 242.9,-50.6 190,0 360.5,87.8 475.8,226.6 1.6,0.5 3.1,0.9 4.7,1.4 -34.4,-246 -236.8,-435.5 -480.5,-435.5"
         style="fill:#ffffff;fill-opacity:1;fill-rule:nonzero;stroke:none"
         id="path58" /><path
         d="m 22359.6,15744.5 c -267.8,0 -485.6,-228.7 -485.6,-509.9 0,-281.1 217.8,-509.8 485.6,-509.8 64.423,0 125.952,13.235 182.252,37.251 177.733,75.815 303.348,259.071 303.348,472.549 0,281.2 -217.8,509.9 -485.6,509.9 m 0,-1304.8 c -425,0 -770.7,356.6 -770.7,794.9 0,438.3 345.7,795 770.7,795 425,0 770.7,-356.7 770.7,-795 0,-438.3 -345.7,-794.9 -770.7,-794.9"
         style="fill:#000000;fill-opacity:1;fill-rule:nonzero;stroke:none"
         id="path60"
         sodipodi:nodetypes="cssssccsssc" /><path
         d="m 20579.4,13166.3 c -105,0 -190.1,85.1 -190.1,190.1 v 1148.2 c 0,224.6 -102.5,438.9 -274.2,573.2 l -101,78.9 c -263.2,205.8 -420.3,532.1 -420.3,872.7 v 1083.5 c 0,105 85.1,190 190,190 105,0 190.1,-85 190.1,-190 v -1083.5 c 0,-224.6 102.5,-438.9 274.3,-573.2 l 101,-78.9 c 263.2,-205.8 420.3,-532 420.3,-872.7 v -1148.2 c 0,-105 -85.1,-190.1 -190.1,-190.1"
         style="fill:#000000;fill-opacity:1;fill-rule:nonzero;stroke:none"
         id="path62" /><path
         d="m 18778.1,9389.4 c -743,0 -1564.9,129 -2318,533 -92.5,49.7 -127.3,164.9 -77.6,257.4 49.6,92.4 164.8,127.2 257.3,77.6 1887.2,-1012.5 4358,-118.5 4382.7,-109.4 98.5,36.3 207.7,-13.8 244.2,-112.2 36.4,-98.4 -13.7,-207.7 -112.1,-244.2 -67.7,-25.1 -1106.7,-402.2 -2376.5,-402.2"
         style="fill:#000000;fill-opacity:1;fill-rule:nonzero;stroke:none"
         id="path64" /><path
         d="m 23397.1,9389.4 c -1269.9,0 -2308.7,377.1 -2376.5,402.2 -98.4,36.5 -148.6,145.9 -112.1,244.3 36.5,98.4 145.9,148.5 244.3,112.1 24.7,-9.1 2495.4,-903 4382.7,109.4 92.5,49.6 207.7,14.9 257.3,-77.6 49.6,-92.5 14.8,-207.7 -77.7,-257.4 -753,-404 -1575,-533 -2318,-533"
         style="fill:#000000;fill-opacity:1;fill-rule:nonzero;stroke:none"
         id="path66" /><path
         d="m 19336.1,11485.7 c 0,0 710,-317.3 1750.6,-317.3 1040.7,0 1754.2,317.3 1754.2,317.3 0,0 -471.5,372.5 -1754.2,372.5 -1282.7,0 -1750.6,-372.5 -1750.6,-372.5"
         style="fill:#ffffff;fill-opacity:1;fill-rule:nonzero;stroke:none"
         id="path68" /><path
         d="m 21086.7,11168.4 c -1040.6,0 -1750.6,317.3 -1750.6,317.3 0,0 467.9,372.5 1750.6,372.5 1282.7,0 1754.2,-372.5 1754.2,-372.5 0,0 -713.5,-317.3 -1754.2,-317.3"
         style="fill:#c3bac7;fill-opacity:1;fill-rule:nonzero;stroke:none"
         id="path70" /><path
         d="m 19112.2,11600.1 c 158.6,-44.2 327.8,-84.7 493.8,-116.9 166.6,-33.7 334.3,-61.1 502.2,-83.9 168.4,-19.4 336.2,-41.4 505.2,-49.6 84.3,-6 168.7,-9.4 253,-13.4 84.4,-3.3 168.9,-2.4 253.2,-3.7 337.5,2.8 675.2,23.9 1011.2,68.7 l 126,17.7 125.6,20.3 c 83.8,13.4 167.6,28.2 250.7,45.7 166.2,31.5 335.3,72 494.4,115.1 l 5.6,1.6 c 50.8,13.7 103.2,-16.3 117,-67.1 11.7,-43.1 -8.2,-87.3 -45.4,-108.1 -162.7,-91.3 -327,-155.5 -496.9,-216 -169.8,-57.2 -342.6,-106.7 -518.2,-143.6 -350.8,-75.1 -710.1,-114 -1069.9,-113.9 -359.6,2.8 -719,38.4 -1069.7,114.8 -175.6,36.8 -348.3,86.4 -518.2,143.5 -170,60.1 -334.2,124.5 -497.1,215.2 -46,25.6 -62.5,83.7 -36.9,129.7 21.8,39.2 67.3,57 108.7,45.5 l 5.7,-1.6"
         style="fill:#000000;fill-opacity:1;fill-rule:nonzero;stroke:none"
         id="path72" /><path
         d="m 27846.6,24246.6 c -77.7,11.9 -130,86.9 -116.9,167.5 l 682.9,4199.6 c 13.1,80.5 86.7,136.1 164.4,124.1 815.2,-125.8 1364.6,-912.6 1227.3,-1757.3 l -232.9,-1432.1 c -137.4,-844.8 -909.6,-1427.6 -1724.8,-1301.8"
         style="fill:#ffffff;fill-opacity:1;fill-rule:nonzero;stroke:none"
         id="path74" /><path
         d="m 28555.9,28705.3 c -53,0 -100.4,-40.7 -109.6,-97.1 l -682.9,-4199.6 c -5,-30.9 2,-61.5 19.9,-86.1 16.7,-23 41,-37.9 68.6,-42.2 795.4,-122.9 1551.6,448.5 1685.8,1273.5 l 232.9,1432.1 c 66.7,410.2 -28,817.1 -266.7,1145.7 -226.2,311.3 -557.2,514.6 -932.1,572.4 -5.3,0.9 -10.7,1.3 -15.9,1.3 m -488.2,-4509.9 c -74.8,0 -150.3,5.7 -226.2,17.4 -45.7,7.1 -86,31.8 -113.4,69.6 -28.7,39.4 -40.1,88.1 -32.1,137.1 l 682.9,4199.7 c 16.1,98.8 107,167.4 203.3,152.3 393,-60.6 740,-273.6 976.9,-599.8 249.5,-343.4 348.5,-768.4 278.9,-1196.7 l -232.9,-1432.1 c -127.4,-783.2 -792.5,-1347.4 -1537.4,-1347.5"
         style="fill:#371a45;fill-opacity:1;fill-rule:nonzero;stroke:none"
         id="path76" /><path
         d="m 28067.6,24419.6 c -14.8,0 -29.7,0.3 -44.6,0.8 105.4,238.9 197.4,484.3 275.4,735.2 27,78.5 52.7,157.5 77.3,237.4 404.3,9.2 781.7,187.6 1055.6,477.8 l -47.5,-291.9 c -109.6,-673.8 -679.3,-1159.3 -1316.2,-1159.3"
         style="fill:#cdc6d0;fill-opacity:1;fill-rule:nonzero;stroke:none"
         id="path78" /><path
         d="m 27924.5,24427.8 c 692.6,-79.4 1341.6,427.2 1459.3,1151.1 l 232.9,1432.1 c 60,368.8 -24.9,734.3 -239,1028.9 -192.3,264.8 -469.4,441.8 -784.2,502.2 l -669,-4114.3 m 143.1,-388.3 c -82.6,0 -166,6.3 -249.9,19.2 -87.1,13.4 -163.7,60.3 -215.8,132 -53.3,73.3 -74.5,163.5 -59.8,253.9 l 682.9,4199.6 c 29.8,183 201,309.2 381,281.4 434.4,-67 817.7,-302.2 1079.3,-662.2 274.1,-377.3 382.9,-843.8 306.6,-1313.5 L 29759,25517.8 c -139.8,-859.4 -871.4,-1478.2 -1691.4,-1478.3"
         style="fill:#000000;fill-opacity:1;fill-rule:nonzero;stroke:none"
         id="path80" /><path
         d="m 15200.4,30802 c 77.7,-12 130.1,-87 117,-167.5 l -682.9,-4199.6 c -13.1,-80.6 -86.7,-136.1 -164.4,-124.1 -815.2,125.8 -1364.7,912.6 -1227.3,1757.3 l 232.9,1432.1 c 137.3,844.8 909.5,1427.6 1724.7,1301.8"
         style="fill:#ffffff;fill-opacity:1;fill-rule:nonzero;stroke:none"
         id="path82" /><path
         d="m 14979.3,30784.9 c -712.1,0 -1348,-540.3 -1469.9,-1290.1 l -232.9,-1432.1 c -66.7,-410.3 28,-817.1 266.7,-1145.7 226.1,-311.3 557.1,-514.6 932.1,-572.5 59.5,-9.3 115.4,33.9 125.5,95.8 l 682.9,4199.7 c 5,30.9 -2.1,61.5 -19.9,86.1 -16.7,23 -41.1,37.9 -68.6,42.2 -72.4,11.1 -144.6,16.6 -215.9,16.6 M 14491.1,26275 c -8.6,0 -17.4,0.7 -26.3,2 -393,60.7 -740,273.7 -976.9,599.9 -249.4,343.4 -348.5,768.4 -278.8,1196.7 l 232.9,1432.1 c 140.1,861.9 931.3,1458.5 1763.6,1330.1 45.7,-7.1 85.9,-31.8 113.4,-69.6 28.7,-39.4 40.1,-88.1 32.1,-137.1 l -683,-4199.7 c -14.5,-89.8 -91.1,-154.4 -177,-154.4"
         style="fill:#371a45;fill-opacity:1;fill-rule:nonzero;stroke:none"
         id="path84" /><path
         d="m 14374.6,26524.3 c -282.1,73.1 -529.2,241.9 -705.3,484.3 -214.1,294.7 -298.9,660.2 -238.9,1029 l 46.5,286.2 c 180.4,-334.5 481.7,-594.7 854.5,-710.3 -11.8,-365.7 2.7,-729.5 43.2,-1089.2"
         style="fill:#cdc6d0;fill-opacity:1;fill-rule:nonzero;stroke:none"
         id="path86" /><path
         d="m 14979.3,30629 c -637.1,0 -1206.5,-485.6 -1316,-1159.3 l -232.9,-1432.1 c -60,-368.8 24.8,-734.3 238.9,-1029 192.3,-264.7 469.4,-441.7 784.2,-502.1 l 669.1,4114.3 c -48.1,5.5 -95.9,8.2 -143.3,8.2 m -488.2,-4509.9 c -16.6,0 -33.3,1.3 -50.1,3.8 -434.4,67.1 -817.7,302.3 -1079.2,662.3 -274.1,377.3 -383,843.8 -306.6,1313.4 l 232.9,1432.1 c 153.8,946 1024.9,1600.6 1941.3,1459.2 87,-13.5 163.7,-60.3 215.7,-132 53.3,-73.3 74.6,-163.5 59.9,-253.9 l -682.9,-4199.6 c -27,-166 -170.1,-285.3 -331,-285.3"
         style="fill:#000000;fill-opacity:1;fill-rule:nonzero;stroke:none"
         id="path88" /><path
         d="m 25120.2,21065.7 -22.1,88.1 c 168.5,103 333.1,212.8 493.4,329.2 -150.8,-146.2 -308,-285.5 -471.3,-417.3"
         style="fill:#cdc6d0;fill-opacity:1;fill-rule:nonzero;stroke:none"
         id="path90" /><path
         d="m 20911.4,19571.5 c -320.8,0 -637.1,23.2 -947.2,68 l 5.6,606 c 475.8,-99.7 951.2,-147.7 1421.6,-147.7 1177.2,0 2319.7,301.1 3338.7,845.5 l 36.5,-144.8 c -990.5,-699.5 -2170.9,-1138.2 -3454.5,-1215 -134.2,-8 -267.9,-12 -400.7,-12"
         style="fill:#cdc6d0;fill-opacity:1;fill-rule:nonzero;stroke:none"
         id="path92" /><path
         d="m 24766.6,20798.5 -36.5,144.8 c 124.6,66.6 247.2,136.8 368,210.5 l 22.1,-88.1 c -114.9,-92.8 -232.9,-182 -353.6,-267.2"
         style="fill:#000000;fill-opacity:1;fill-rule:nonzero;stroke:none"
         id="path94" /><path
         d="m 28330.3,25953.5 c -911.6,-3900.7 -4697.8,-6359.7 -8456.6,-5492.3 -3758.8,867.5 -6066.9,4732.8 -5155.3,8633.6 911.6,3900.7 4697.8,6359.7 8456.6,5492.3 3758.9,-867.5 6067,-4732.8 5155.3,-8633.6"
         style="fill:#ffffff;fill-opacity:1;fill-rule:nonzero;stroke:none"
         id="path96" /><path
         d="m 21657.2,34726.3 c -3193.2,0 -6122.1,-2287.1 -6905.6,-5639.3 -450.6,-1928.2 -133.7,-3896.9 892.2,-5543.5 971.9,-1559.9 2476.8,-2642.7 4237.6,-3049 3734.6,-862 7509.8,1590.6 8415.7,5466.8 l 33.3,-7.8 -33.3,7.8 c 450.6,1928.2 133.8,3896.9 -892.2,5543.6 -971.9,1559.8 -2476.8,2642.6 -4237.5,3048.9 -504.9,116.5 -1011,172.5 -1510.2,172.5 m -265.7,-14472.6 c -504.5,0 -1015.2,56.5 -1525.5,174.3 -1778.5,410.4 -3298.6,1504 -4280.1,3079.4 -1035.7,1662.1 -1355.5,3649.2 -900.8,5595.1 914.5,3912.8 4726.4,6388 8497.6,5517.8 1778.6,-410.4 3298.6,-1504 4280.2,-3079.3 1035.6,-1662.2 1355.5,-3649.3 900.7,-5595.2 -790.7,-3383.4 -3748.2,-5692.1 -6972.1,-5692.1"
         style="fill:#371a45;fill-opacity:1;fill-rule:nonzero;stroke:none"
         id="path98" /><path
         d="m 21391.7,20477.9 c -468.9,0.1 -944.1,50.6 -1418.3,155.7 l 3.6,394.4 c 0.3,31.5 -2.8,62.4 -8.9,92.6 38.3,-8.5 76.7,-16.7 115.2,-24.6 659.2,-134.8 1298.4,-191.9 1902.7,-191.9 930.4,0 1777.4,135.5 2484.7,331.7 -944.3,-488.6 -1996,-758 -3079,-757.9 m -2571.9,990.2 h -896.2 c -58.4,36.3 -116,73.5 -173.2,111.6 140.2,61.4 271.1,124 385.6,186.5 220.1,-107.2 448.4,-207.4 683.8,-298.1"
         style="fill:#cdc6d0;fill-opacity:1;fill-rule:nonzero;stroke:none"
         id="path100" /><path
         d="m 28330.4,25953.5 h 0.5 -0.5 m -6673.3,8616.9 c -3122.4,0 -5987,-2238.4 -6753.6,-5518.9 -441.2,-1887.5 -131.2,-3814.4 872.6,-5425.6 949.9,-1524.4 2420.2,-2582.5 4140.4,-2979.5 3650.9,-842.6 7342.4,1557.7 8228.8,5350.4 441.1,1887.5 131.2,3814.4 -872.7,5425.6 -949.8,1524.4 -2420.2,2582.5 -4140.3,2979.5 -493.2,113.8 -987.6,168.5 -1475.2,168.5 m -265.7,-14472.6 c -516.1,0 -1038.4,57.8 -1560.4,178.2 -1819.3,419.8 -3373.9,1538.2 -4377.5,3148.9 -1057.7,1697.6 -1384.5,3726.5 -920.2,5713.1 934,3996.3 4829.6,6523.6 8684.5,5634.3 1819.2,-419.9 3373.8,-1538.1 4377.4,-3148.9 1057.7,-1697.5 1384.5,-3726.5 920.2,-5713.1 -807.4,-3455 -3829.4,-5812.5 -7124,-5812.5"
         style="fill:#000000;fill-opacity:1;fill-rule:nonzero;stroke:none"
         id="path102" /><path
         d="m 28266.2,25777.2 c -302.9,-1386.6 -1017.9,-2581 -1992.6,-3487.1 -730.7,-679.3 -3322.7,-1586.7 -6152.2,-1007.8 -2623.6,536.7 -4689.5,2495.4 -5071.4,3413.2 -509.3,1224.1 -662,2604.4 -359.2,3991 801.5,3669.3 4172.5,4539.2 7921.4,3735.8 3748.9,-803.4 6455.4,-2975.8 5654,-6645.1"
         style="fill:#1a1a1a;fill-opacity:1;fill-rule:nonzero;stroke:none"
         id="path104" /><path
         d="m 20181.7,32502.4 c -2123.6,0 -4618.7,-713.3 -5305.2,-3856.5 -284.7,-1303.7 -164,-2644.5 349,-3877.4 363.6,-873.8 2378.6,-2777.3 4934,-3300 2832.8,-579.6 5333.9,355.8 5984.7,960.8 982,912.9 1651.5,2084.6 1936.3,3388.4 l 185.7,-40.6 -185.7,40.6 c 293.7,1344.8 113.7,2537.2 -535,3544.2 -884.5,1372.8 -2604.2,2366.9 -4973.1,2874.5 -604.1,129.5 -1462,266 -2390.7,266 M 21986,20904.1 c -604.3,0 -1243.5,57.1 -1902.7,191.9 -2722.9,557.1 -4807.1,2561.1 -5208.8,3526.4 -543.1,1305.2 -670.8,2724.5 -369.4,4104.6 393,1799 1392,3037.3 2969.3,3680.6 1377.6,561.9 3168,631.2 5177.6,200.5 2470,-529.3 4272.6,-1580.7 5213,-3040.4 705.5,-1095 902.9,-2384 586.9,-3831.1 -301.4,-1379.9 -1009.9,-2619.8 -2048.8,-3585.7 -563.4,-523.7 -2268,-1246.8 -4417.1,-1246.8"
         style="fill:#000000;fill-opacity:1;fill-rule:nonzero;stroke:none"
         id="path106" /><path
         d="m 21972.8,21286.3 c -577.2,0 -1187.3,54.1 -1813.3,182.2 -588.2,120.3 -1147.8,313.8 -1665.2,551 50.8,60 81.8,132.8 91.2,208.7 317.7,-25.1 630.9,-36.8 937.4,-36.8 2603.5,-0.1 4746.7,843.6 5466.8,1513.1 682.2,634.1 1264.1,1379.5 1713.3,2215.6 116.1,134.1 217,296.7 292.5,481.6 51.3,125.8 87.3,252.8 108.5,377.2 172.8,431.6 312.1,882.7 414.4,1351.2 76.7,350.5 127.8,690.4 155.3,1019.6 543.2,-960.9 680.2,-2080.5 406.8,-3332 l 185.6,-40.5 v 0 l -185.6,40.5 c -284.8,-1303.8 -954.3,-2475.5 -1936.3,-3388.4 -507,-471.3 -2136.6,-1143 -4171.4,-1143"
         style="fill:#333333;fill-opacity:1;fill-rule:nonzero;stroke:none"
         id="path108" /><path
         d="m 21964.6,21097.7 c -590.6,0 -1211,55 -1843.4,184.4 -92.6,18.9 -184.5,39.6 -275.6,61.9 -82,80.1 -189.9,124.1 -304.8,124.1 h -141.3 c -371.2,115.6 -727.9,257.3 -1066.4,417.2 46.6,31.7 87.6,63.2 122.3,94.2 14,12.6 27,25.9 38.9,40 517.4,-237.2 1077,-430.7 1665.2,-551 626,-128.1 1236.1,-182.2 1813.3,-182.2 2034.8,0 3664.4,671.7 4171.4,1143 982,912.9 1651.5,2084.6 1936.3,3388.4 l 185.6,-40.5 c -302.9,-1386.8 -1018.2,-2580.9 -1992.3,-3487.1 -567.5,-527.4 -2257.5,-1192.4 -4309.2,-1192.4 m 6301.5,4679.5 -185.6,40.5 c 273.4,1251.5 136.4,2371.1 -406.8,3332 9.3,112.4 16,223.6 20,333.5 650.3,-999.2 894.1,-2232.1 572.4,-3705.8 0,-0.1 0,-0.1 0,-0.2"
         style="fill:#4d4d4d;fill-opacity:1;fill-rule:nonzero;stroke:none"
         id="path110" /><path
         d="m 28384.7,28930.3 c -57.1,0 -113.3,25.6 -150.6,74.5 l -15.3,20 -10.3,24.3 c -783.4,1916.4 -2792.9,3349.8 -5513.2,3932.9 -2735.8,586.3 -5168.9,72 -6675.4,-1410.9 l -14.6,-12.9 c -81.7,-65.5 -201.5,-52.8 -267.3,28.8 -63.3,78.7 -54.2,192.1 19.5,259.2 1599.5,1571.1 4156.8,2120.6 7017.5,1507.5 2843.1,-609.4 4950.8,-2124.2 5783.7,-4156.5 34.5,-78.6 12.5,-173.6 -58.6,-227.9 -34.6,-26.3 -75.2,-39 -115.4,-39"
         style="fill:#000000;fill-opacity:1;fill-rule:nonzero;stroke:none"
         id="path112" /><path
         d="m 12937.4,13636.5 c -168,0 -339.8,5.3 -511.7,20.2 -178.1,15.5 -344.3,41.1 -494,76 -102.2,23.8 -165.8,126 -141.9,228.3 23.9,102.2 126.1,165.8 228.3,141.9 132.1,-30.9 280.4,-53.6 440.5,-67.5 362.3,-31.5 735.9,-16.5 1065.5,-3.3 l 98.6,3.9 c 108.3,4 222.3,7.8 325.4,7.8 105,0 190,-85.1 190,-190 0,-105 -85,-190.1 -190,-190.1 -96.6,0 -206.7,-3.7 -311.1,-7.6 l -97.7,-3.8 c -189.2,-7.6 -392.5,-15.8 -601.9,-15.8"
         style="fill:#4d1c54;fill-opacity:1;fill-rule:nonzero;stroke:none"
         id="path114" /><path
         d="m 19327.3,19014.6 v -5091.4 c 0,-42.4 -39.9,-77.1 -88.7,-77.1 h -7190.9 c -81.7,0 -154.9,27 -210.4,71.7 -61.7,48.9 -100.3,119.5 -100.3,198.1 v 4705.9 c 0,149.2 138.9,269.9 310.7,269.9 h 7190.9 c 48.8,0 88.7,-34.7 88.7,-77.1"
         style="fill:#69b0b1;fill-opacity:1;fill-rule:nonzero;stroke:none"
         id="path116" /><path
         d="m 19137.3,14036.1 h -2610.1 v 1192 c 266.9,0.7 525.1,1.5 764.9,2.3 182.6,-204.1 411.5,-355.2 669.2,-436.5 82.1,-25.9 189.8,-35.8 306.3,-35.8 30.2,0 61,0.6 92.1,1.9 27.3,-1.3 55.4,-1.9 84,-1.9 244.7,0 528,43.4 693.6,73.3 v -795.3 m -4495,0 h -2594.6 c -35.1,0 -67.5,10.6 -92.3,30.6 -10.6,8.4 -28.4,26 -28.4,49.2 v 426.1 c 43.1,-1.7 85,-2.5 126.3,-2.5 764.4,0 1228.3,279.5 1493.4,682.7 290.4,0.5 671.6,1 1095.6,1.8 v -1187.9 m 3920.1,4311.9 c -125.7,146.2 -326.5,240.8 -552.7,240.8 h -1482.5 v 273.6 h 2610.1 v -438.5 c -164.4,-9.9 -365,-32.1 -574.9,-75.9 m -6635.4,133.1 v 340.7 c 0,13.7 6.6,28 18.3,40.6 h 2697 v -273.6 h -2461.7 c -107.3,0 -201.1,-43 -253.6,-107.7"
         style="fill:#44a1a3;fill-opacity:1;fill-rule:nonzero;stroke:none"
         id="path118" /><path
         d="m 14832.4,13846.1 h 1504.7 v 5245.6 h -1504.7 z"
         style="fill:#f4d562;fill-opacity:1;fill-rule:nonzero;stroke:none"
         id="path120" /><path
         d="M 15022.4,14036.1 H 16147 v 4865.5 h -1124.6 v -4865.5 m 1504.8,-380.1 h -1884.9 v 5625.7 h 1884.9 V 13656"
         style="fill:#000000;fill-opacity:1;fill-rule:nonzero;stroke:none"
         id="path122" /><path
         d="M 15022.4,18590.2 H 16147 v 272.203 h -1124.6 z"
         style="fill:#cfb450;fill-opacity:1;fill-rule:nonzero;stroke:none"
         id="path124" /><path
         d="m 16337,18590.2 h -190 v 272.2 h 190 v -272.2 m -1314.6,0 h -190 v 272.2 h 190 v -272.2"
         style="fill:#000000;fill-opacity:1;fill-rule:nonzero;stroke:none"
         id="path126" /><path
         d="M 15022.4,14036.1 H 16147 v 1191.6 h -1124.6 z"
         style="fill:#cfb450;fill-opacity:1;fill-rule:nonzero;stroke:none"
         id="path128" /><path
         d="m 16337,14036.1 h -1504.6 v 1191.6 h 190 V 14036.1 H 16147 v 1191.6 h 190 v -1191.6"
         style="fill:#000000;fill-opacity:1;fill-rule:nonzero;stroke:none"
         id="path130" /><path
         d="m 12047.7,18901.6 c -71.1,0 -120.7,-42.1 -120.7,-79.8 v -4705.9 c 0,-23.2 17.8,-40.8 28.4,-49.2 24.8,-20 57.2,-30.6 92.3,-30.6 h 7089.6 v 4865.5 H 12047.7 M 19238.6,13656 h -7190.9 c -121.6,0 -238.6,40.4 -329.7,113.8 -108.3,85.9 -171.1,212.4 -171.1,346.1 v 4705.9 c 0,253.6 224.7,459.9 500.8,459.9 h 7190.9 c 153.7,0 278.8,-119.8 278.8,-267.1 v -5091.4 c 0,-147.3 -125.1,-267.2 -278.8,-267.2"
         style="fill:#000000;fill-opacity:1;fill-rule:nonzero;stroke:none"
         id="path132" /><path
         d="m 15409,21079.5 c 0,0 -1180.1,331.3 -1985.6,685.6 -178.6,78.6 -339.1,158.7 -464,236.4 -65.7,40.6 -121.6,80.9 -164.9,119.8 -71.1,63.3 -89.9,166.4 -46.9,251.2 143.4,283.6 596.9,968 1754.6,1326.5 22.4,6.9 45.5,-9.5 45.5,-33.1 0.3,-37.7 1.1,-96.8 5,-172.4 8.1,-167.9 29.3,-416.2 84.3,-689.3 101,-503.1 315.2,-1088.9 769.6,-1405.3 3,-101.9 3.9,-208.6 2.4,-319.4"
         style="fill:#f4d562;fill-opacity:1;fill-rule:nonzero;stroke:none"
         id="path134" /><path
         d="m 13002.6,22199.8 c -31.2,21.6 -58.6,42.8 -81.6,63.4 -6.5,5.8 -8,15.3 -3.8,23.6 122.2,241.7 499.9,816 1446.9,1164.9 1.9,-34.9 4.2,-72 7.2,-111.1 -798.8,-340 -1200.3,-840.2 -1349.7,-1102.2 -7.5,-13.1 -13.8,-26 -19,-38.6"
         style="fill:#f3df94;fill-opacity:1;fill-rule:nonzero;stroke:none"
         id="path136" /><path
         d="m 14879.7,21468.1 h -97.2 c -192.9,62.1 -400.9,132 -606.8,205.8 25.7,6.6 46.8,16.5 61.7,30.3 126.5,116.6 -397.5,590.5 -429.5,615.6 30.7,-20.3 557.2,-399.3 765.3,-399.3 55.3,0 88.1,26.9 83,94.4 -2.3,30.8 -5.2,59.4 -8.4,86.3 75.4,-180.3 170.3,-354.4 289.5,-509.8 -22.8,-38.9 -42.2,-80.2 -57.6,-123.3"
         style="fill:#cfb450;fill-opacity:1;fill-rule:nonzero;stroke:none"
         id="path138" /><path
         d="m 14364.6,23451.9 c -947.4,-348.9 -1325.2,-923.4 -1447.4,-1165.1 -4.2,-8.3 -2.7,-17.8 3.8,-23.6 329.3,-295.2 1540.8,-702.1 2241.4,-913.6 -635.1,561.4 -770.1,1612.3 -797.8,2102.3 m 1231.3,-2622.3 -238.3,66.9 c -220.8,62 -2172.1,619.1 -2690,1083.4 -134.4,119.9 -171.4,316.8 -89.6,478.5 152.1,300.7 638.5,1041.5 1868,1422.2 68,20.9 142.7,8.4 200,-33.7 57.2,-42 91.5,-109.3 91.8,-180.3 0.7,-161.1 28.5,-1590.1 777.4,-2111.7 l 78.4,-54.6 2.9,-95.5 c 3.2,-101.2 4,-211.4 2.5,-327.7 l -3.1,-247.5"
         style="fill:#000000;fill-opacity:1;fill-rule:nonzero;stroke:none"
         id="path140" /><path
         d="m 15406.5,21398.9 c -797.3,555.4 -855.8,1941.2 -858.7,2251.6 -0.2,28.4 31.4,45.3 54.7,29.1 181.7,-125.8 758.1,-651.7 804,-2280.7"
         style="fill:#2bc932;fill-opacity:1;fill-rule:nonzero;stroke:none"
         id="path142" /><path
         d="m 14764.3,23226.7 c 41.7,-382.6 147.8,-922.6 416.9,-1323.5 -77,671.9 -257.6,1082.2 -416.9,1323.5 m 842.9,-2199.1 -309.3,215.4 c -856.8,596.8 -936.2,1992.2 -940.2,2405.7 -0.7,84.5 45.1,161.5 119.7,201 74.5,39.6 163.9,34.3 233.3,-13.8 250.6,-173.6 838.6,-758 885.8,-2431.6 l 10.7,-376.7"
         style="fill:#4d1c54;fill-opacity:1;fill-rule:nonzero;stroke:none"
         id="path144" /><path
         d="m 18328.9,22121.4 c -499.9,-448.2 -2614.5,-1041.9 -2614.5,-1041.9 -1.4,115.8 -0.7,226.7 2.8,332.7 16.1,11.2 32.2,22.8 47.6,35 16.1,12.3 31.5,24.5 46.9,37.8 61.9,51.8 118.9,108.8 171.1,170.4 9.8,11.2 19.2,22.7 28.3,34.3 3.8,4.2 7.3,8.7 10.8,13.3 7.4,9.4 14.7,19.2 22.1,28.6 12.2,16.1 24.5,32.9 36,49.7 6,8.4 11.6,16.8 17.5,25.2 60.2,88.9 112.7,183.3 158.5,281.3 6.6,14 12.9,28 19.2,42 25.6,56.7 48.7,114 70,171.8 5.3,14.3 10.2,28.3 15,42.6 6,16.1 11.2,31.9 16.5,48 l 12.6,38.8 c 11.5,36.7 22.4,73.1 32.5,109.5 3.9,13.7 7.7,27.3 11.2,40.9 13.7,50.8 25.9,101.5 37.1,151.5 3.2,14.4 6.3,28.4 9.1,42.4 15.7,74.1 29,146.9 39.9,216.9 2.1,12.9 4.2,25.9 5.9,38.8 7.7,51.1 14.4,100.8 19.6,148 2.5,20.7 4.6,40.9 6.7,60.9 10.1,94.8 16.1,179.8 19.2,250.5 1.1,16.4 1.8,31.8 2.1,46.9 1.8,39.1 2.5,72.7 2.8,99.7 0.4,4.9 0.4,9.4 0.4,13.6 v 15.4 c 0,23.4 23.1,39.9 45.4,32.9 1157.7,-358.3 1611.1,-1042.9 1754.6,-1326.3 43,-85 24.1,-187.9 -46.9,-251.2"
         style="fill:#f4d562;fill-opacity:1;fill-rule:nonzero;stroke:none"
         id="path146" /><path
         d="m 16575.8,23652.4 v -1.8 c 0,-4.2 0,-8.7 -0.4,-13.6 -0.3,-27 -1,-60.6 -2.8,-99.7 -0.3,-15.1 -1,-30.5 -2.1,-46.9 -3.1,-70.7 -9.1,-155.7 -19.2,-250.5 -2.1,-20 -4.2,-40.2 -6.7,-60.9 -5.2,-47.2 -11.9,-96.9 -19.6,-148 -1.7,-12.9 -3.8,-25.9 -5.9,-38.8 -10.9,-70 -24.2,-142.8 -39.9,-216.9 -2.8,-14 -5.9,-28 -9.1,-42.4 -11.2,-50 -23.4,-100.7 -37.1,-151.5 -3.5,-13.6 -7.3,-27.2 -11.2,-40.9 -10.1,-36.4 -21,-72.8 -32.5,-109.5 l -12.6,-38.8 c -5.3,-16.1 -10.5,-31.9 -16.5,-48 -4.8,-14.3 -9.7,-28.3 -15,-42.6 -21.3,-57.8 -44.4,-115.1 -70,-171.8 -6.3,-14 -12.6,-28 -19.2,-42 -45.8,-98 -98.3,-192.4 -158.5,-281.3 -5.9,-8.4 -11.5,-16.8 -17.5,-25.2 -11.5,-16.8 -23.8,-33.6 -36,-49.7 -7.4,-9.4 -14.7,-19.2 -22.1,-28.6 -3.5,-4.6 -7,-9.1 -10.8,-13.3 -9.1,-11.6 -18.5,-23.1 -28.3,-34.3 -52.2,-61.6 -109.2,-118.6 -171.1,-170.4 -15.4,-13.3 -30.8,-25.5 -46.9,-37.8 -15.4,-12.2 -31.5,-23.8 -47.6,-35 48.6,1618.8 622.4,2141.9 803.6,2267.4 23.1,15.8 53.6,0 55,-27.2"
         style="fill:#2b9b1b;fill-opacity:1;fill-rule:nonzero;stroke:none"
         id="path148" /><path
         d="m 16575.8,23652.4 v -1.8 c 0,-4.2 0,-8.7 -0.4,-13.6 -0.3,-27 -1,-60.6 -2.8,-99.7 -0.3,-15.1 -1,-30.5 -2.1,-46.9 -3.1,-70.7 -9.1,-155.7 -19.2,-250.5 -2.1,-20 -4.2,-40.2 -6.7,-60.9 -5.2,-47.2 -11.9,-96.9 -19.6,-148 -1.7,-12.9 -3.8,-25.9 -5.9,-38.8 -10.9,-70 -24.2,-142.8 -39.9,-216.9 -2.8,-14 -5.9,-28 -9.1,-42.4 -11.2,-50 -23.4,-100.7 -37.1,-151.5 -3.5,-13.6 -7.3,-27.2 -11.2,-40.9 -10.1,-36.4 -21,-72.8 -32.5,-109.5 l -12.6,-38.8 c -5.3,-16.1 -10.5,-31.9 -16.5,-48 -4.8,-14.3 -9.7,-28.3 -15,-42.6 -21.3,-57.8 -44.4,-115.1 -70,-171.8 -6.3,-14 -12.6,-28 -19.2,-42 -45.8,-98 -98.3,-192.4 -158.5,-281.3 -5.9,-8.4 -11.5,-16.8 -17.5,-25.2 -11.5,-16.8 -23.8,-33.6 -36,-49.7 -7.4,-9.4 -14.7,-19.2 -22.1,-28.6 -3.5,-4.6 -7,-9.1 -10.8,-13.3 -9.1,-11.6 -18.5,-23.1 -28.3,-34.3 -52.2,-61.6 -109.2,-118.6 -171.1,-170.4 -15.4,-13.3 -30.8,-25.5 -46.9,-37.8 -15.4,-12.2 -31.5,-23.8 -47.6,-35 48.6,1618.8 622.4,2141.9 803.6,2267.4 23.1,15.8 53.6,0 55,-27.2"
         style="fill:#2bc932;fill-opacity:1;fill-rule:nonzero;stroke:none"
         id="path150" /><path
         d="m 15181.2,21903.2 c -269.1,400.9 -375.2,940.9 -416.9,1323.5 159.3,-241.3 339.9,-651.6 416.9,-1323.5"
         style="fill:#cfb450;fill-opacity:1;fill-rule:nonzero;stroke:none"
         id="path152" /><path
         d="m 15943.9,21918.6 c 78.1,662.6 257,1068.4 414.8,1307.8 -0.9,-8.6 -1.9,-17.3 -3,-26.4 v 0 c -5,-44.9 -11.3,-92.1 -19.1,-143.8 -1.4,-11 -3.2,-22.1 -5.3,-34.9 -10.6,-68.1 -23.4,-137.7 -38.5,-208.6 -2,-10.4 -4.3,-20.8 -6.7,-31.5 l -1.5,-6.8 c -11.5,-51.6 -23,-98.5 -35.7,-145.9 -2.9,-11.3 -6.1,-22.7 -10.1,-36.9 -9.6,-34.4 -19.9,-68.8 -30.3,-101.9 l -12.5,-38.6 c -4.5,-13.8 -9,-27.3 -15.6,-45.4 -4.4,-13 -8.9,-25.7 -13.5,-38.2 -21.3,-57.6 -42.5,-109.8 -66.5,-163.1 -5.2,-11.6 -10.5,-23.2 -16.6,-36.1 -42.8,-91.5 -90.6,-176.6 -139.9,-249.7"
         style="fill:#cfb450;fill-opacity:1;fill-rule:nonzero;stroke:none"
         id="path154" /><path
         d="m 14764.3,23226.7 c 41.7,-382.6 147.8,-922.6 416.9,-1323.5 -77,671.9 -257.6,1082.2 -416.9,1323.5 m 842.9,-2199.1 -309.3,215.4 c -856.8,596.8 -936.2,1992.2 -940.2,2405.7 -0.7,84.5 45.1,161.5 119.7,201 74.5,39.6 163.9,34.3 233.3,-13.8 250.6,-173.6 838.6,-758 885.8,-2431.6 l 10.7,-376.7"
         style="fill:#000000;fill-opacity:1;fill-rule:nonzero;stroke:none"
         id="path156" /><path
         d="m 16358.7,23226.4 c -157.8,-239.4 -336.7,-645.2 -414.8,-1307.8 49.3,73.1 97.1,158.2 139.9,249.7 6.1,12.9 11.4,24.5 16.6,36.1 24,53.3 45.2,105.5 66.5,163.1 4.6,12.5 9.1,25.2 13.5,38.2 6.6,18.1 11.1,31.6 15.6,45.4 l 12.5,38.6 c 10.4,33.1 20.7,67.5 30.3,101.9 4,14.2 7.2,25.6 10.1,36.9 12.7,47.4 24.2,94.3 35.7,145.9 l 1.5,6.8 c 2.4,10.7 4.7,21.1 6.7,31.5 15.1,70.9 27.9,140.5 38.5,208.6 2.1,12.8 3.9,23.9 5.3,34.9 7.8,51.7 14.1,98.9 19.1,143.8 1.1,9.1 2.1,17.8 3,26.4 m -842.8,-2186 11.3,377.5 c 50,1663.3 635.8,2245 885.4,2418 68.4,46.6 155.4,52.7 228.1,16.6 72.9,-36.2 120.7,-109.2 124.9,-190.5 l 0.2,-11.4 c 0,-6.3 -0.1,-13.1 -0.4,-20.2 -0.4,-27.9 -1.1,-62.1 -2.9,-101.7 -0.3,-13.3 -1.1,-31.3 -2.3,-50.4 -3.6,-80.5 -10.3,-168.7 -19.9,-258.6 l -0.7,-6 c -1.9,-18.7 -3.9,-37.7 -6.2,-57 -5.4,-48.3 -12.4,-100.4 -20.4,-154 -1.5,-11.4 -3.9,-26 -6.2,-40.5 -11.5,-74.3 -25.6,-150.7 -41.7,-226.4 -2.1,-10.7 -4.9,-23.4 -7.8,-36.4 l -1.6,-7.3 c -12.8,-57.6 -25.6,-109.7 -39.1,-160 -3.1,-12 -7.1,-26.2 -11.1,-40.4 -11.3,-40.6 -22.7,-79 -34.9,-117.7 l -13.1,-40.5 c -6.1,-18.7 -12.1,-36.6 -18.9,-55 -3.9,-11.4 -9.2,-26.7 -14.9,-42.3 -24.6,-66.4 -49.1,-126.6 -75.2,-184.5 -7.8,-17.4 -14.2,-31.6 -20.9,-45.6 -51.1,-109.3 -109.4,-212.7 -172.7,-306.2 l -19.9,-28.5 c -11.7,-17.1 -25.7,-36.4 -39.8,-54.9 l -23.2,-30.2 c -4.7,-6.1 -9.6,-12.3 -14.9,-18.4 -10.1,-12.8 -20.6,-25.5 -31.5,-37.9 -57.4,-67.8 -122.7,-132.9 -192,-190.8 -16.1,-13.9 -34.4,-28.6 -53.6,-43.2 -15.5,-12.4 -34.8,-26.3 -54.2,-39.8 l -309.9,-215.8"
         style="fill:#000000;fill-opacity:1;fill-rule:nonzero;stroke:none"
         id="path158" /><path
         d="m 16340.8,21468.1 h -83.2 c -17.7,49.6 -40.7,96.8 -68.2,140.8 l 5.8,7.6 c 14.1,18.5 28.1,37.8 39.8,54.9 l 19.9,28.5 c 63.3,93.5 121.6,196.9 172.7,306.2 6.7,14 13.1,28.2 20.9,45.6 11.8,26.1 23.2,52.7 34.5,80.2 -4.8,-35.6 -9.1,-74.2 -12.3,-117 -5.1,-67.5 27.7,-94.4 83,-94.4 208.1,0.1 734.6,379 765.3,399.3 -32,-25.1 -556.1,-499 -429.5,-615.6 14.5,-13.5 34.8,-23.1 59.6,-29.7 -206.4,-74.1 -415,-144.1 -608.3,-206.4"
         style="fill:#cfb450;fill-opacity:1;fill-rule:nonzero;stroke:none"
         id="path160" /><path
         d="m 15054,21243.2 c 0,284.2 230.4,514.6 514.7,514.6 284.2,0 514.6,-230.4 514.6,-514.6 H 15054"
         style="fill:#2b9b1b;fill-opacity:1;fill-rule:nonzero;stroke:none"
         id="path162" /><path
         d="m 15054,21243.2 c 0,284.2 230.4,514.6 514.7,514.6 284.2,0 514.6,-230.4 514.6,-514.6 H 15054"
         style="fill:#cfb450;fill-opacity:1;fill-rule:nonzero;stroke:none"
         id="path164" /><path
         d="m 18124.8,22202.5 c -5,11.8 -11,23.8 -17.9,35.9 -149.7,262.5 -552.7,764.4 -1355.2,1104.5 3,37.3 5.4,73.7 7.2,108.9 946.6,-348.6 1324.9,-923.3 1447.3,-1165 4.2,-8.3 2.7,-17.8 -4.2,-23.9 -21.9,-19.6 -47.8,-39.8 -77.2,-60.4"
         style="fill:#f3df94;fill-opacity:1;fill-rule:nonzero;stroke:none"
         id="path166" /><path
         d="m 16565.1,23517.3 0.8,-0.3 -0.8,0.3 m -850.8,-2627.9 c -83,0 -159.3,54.8 -182.9,138.7 -28.3,101.1 30.6,206 131.6,234.4 576.4,161.9 2156.1,657.2 2539,1000.4 6.9,6.1 8.4,15.6 4.2,23.9 -122.4,241.7 -500.7,816.4 -1447.3,1165 -3.8,-73.2 -10.1,-152 -18.6,-232.1 l -0.7,-6 c -1.9,-18.7 -3.9,-37.7 -6.2,-57 -5.4,-48.3 -12.4,-100.4 -20.4,-154 -1.5,-11.4 -3.9,-26 -6.2,-40.5 -11.5,-74.3 -25.6,-150.7 -41.7,-226.4 -2.1,-10.7 -4.9,-23.4 -7.8,-36.4 l -1.6,-7.3 c -12.8,-57.6 -25.6,-109.7 -39.1,-160 -3.1,-12 -7.1,-26.2 -11.1,-40.4 -11.3,-40.6 -22.7,-79 -34.9,-117.7 l -13.1,-40.5 c -6.1,-18.7 -12.1,-36.6 -18.9,-55 -3.9,-11.4 -9.2,-26.7 -14.9,-42.3 -24.6,-66.4 -49.1,-126.6 -75.2,-184.5 -7.8,-17.4 -14.2,-31.6 -20.9,-45.6 -51.1,-109.3 -109.4,-212.7 -172.7,-306.2 l -19.9,-28.5 c -11.7,-17.1 -25.7,-36.4 -39.8,-54.9 l -23.2,-30.2 c -4.7,-6.1 -9.6,-12.3 -14.9,-18.4 -10.1,-12.8 -20.6,-25.5 -31.5,-37.9 -7.1,-8.5 -16.8,-19.6 -26.6,-30.6 -69.9,-78.4 -190.1,-85.3 -268.4,-15.4 -78.3,69.9 -85.2,190.1 -15.3,268.4 7.5,8.4 14.9,16.9 22.1,25.5 10,11.5 17.3,20.4 24.3,29.3 l 32.2,41.1 c 9.3,12.2 19.7,26.4 29.5,40.7 l 19.1,27.5 c 49.8,73.6 98.1,159.5 141.3,251.8 6.1,12.9 11.4,24.5 16.6,36.1 24,53.3 45.2,105.5 66.5,163.1 4.6,12.5 9.1,25.2 13.5,38.2 6.6,18.1 11.1,31.6 15.6,45.4 l 12.5,38.6 c 10.4,33.1 20.7,67.5 30.3,101.9 4,14.2 7.2,25.6 10.1,36.9 12.7,47.4 24.2,94.3 35.7,145.9 l 1.5,6.8 c 2.4,10.7 4.7,21.1 6.7,31.5 15.1,70.9 27.9,140.5 38.5,208.6 2.1,12.8 3.9,23.9 5.3,34.9 7.8,51.7 14.1,98.9 19.1,143.8 2.3,19 4.1,36.3 5.9,53.4 l 0.7,6.4 c 8.8,82.4 14.9,162.7 18.3,239.1 1.1,17.3 1.7,30.1 2,42.7 1.8,41 2.4,72.6 2.8,98 l 0.4,10.6 -0.1,15.8 c 0,71.1 34.2,138.7 91.6,180.8 57.5,42.3 132.5,54.8 200.7,33.5 1228.1,-380.1 1715,-1121 1867.4,-1421.9 81.8,-161.7 44.8,-358.6 -90,-478.9 -517.5,-463.9 -2468.8,-1021 -2689.6,-1083 -17.2,-4.8 -34.5,-7.1 -51.5,-7.1"
         style="fill:#000000;fill-opacity:1;fill-rule:nonzero;stroke:none"
         id="path168" /><path
         d="m 16125.2,21047.2 c -96.7,0 -175,78.4 -175,175 0,210.4 -171.2,381.5 -381.5,381.5 -210.4,0 -381.5,-171.1 -381.5,-381.5 0,-96.6 -78.4,-175 -175,-175 -96.7,0 -175,78.4 -175,175 0,403.4 328.1,731.5 731.5,731.5 403.3,0 731.4,-328.1 731.4,-731.5 0,-96.6 -78.3,-175 -174.9,-175"
         style="fill:#000000;fill-opacity:1;fill-rule:nonzero;stroke:none"
         id="path170" /><path
         d="m 15211.6,21182 c -14.2,0 -28.6,3.2 -42.2,10 -47.7,21.9 -70.9,79.3 -49,127 21.9,47.8 76,69.8 123.7,47.9 l 10.6,-5 c 46.6,-24 65.3,-81.2 41.6,-127.9 -16.8,-32.9 -50.1,-52 -84.7,-52"
         style="fill:#4d1c54;fill-opacity:1;fill-rule:nonzero;stroke:none"
         id="path172" /><path
         d="m 13862.7,19147.5 h 1314.6 v 2035.7 h -1314.6 v -2035.7 m 1504.7,-190 h -1694.8 v 2415.7 h 1694.8 v -2415.7"
         style="fill:#4d1c54;fill-opacity:1;fill-rule:nonzero;stroke:none"
         id="path174" /><path
         d="m 19857.6,21218.4 v -2088.8 c 0,-42.8 -39.5,-77.1 -88.8,-77.1 h -8196.2 c -169.6,0 -306.7,119.1 -306.7,266.4 v 1692.9 c 0,146.9 137.1,266.4 306.7,266.4 h 8216.6 c 37.8,0 68.4,-26.6 68.4,-59.8"
         style="fill:#69b0b1;fill-opacity:1;fill-rule:nonzero;stroke:none"
         id="path176" /><path
         d="M 11456,19998.5 V 21032 c 0,30.9 25.2,56 56.1,56 h 3311.5 v -127 h -2807.5 c -244.1,0 -442.4,-171.8 -442.4,-383.8 v -293.7 c 0,-108.4 -44.1,-207.6 -117.7,-285 m 6126.5,389.4 c -453.3,0 -821.4,141.8 -821.4,317 0,105.3 133.1,198.5 337.8,256.1 h -770.6 v 127 h 3029.9 v -127 h -1292.1 c 204.7,-57.6 337.8,-150.8 337.8,-256.1 0,-175.2 -367.7,-317 -821.4,-317"
         style="fill:#99dedf;fill-opacity:1;fill-rule:nonzero;stroke:none"
         id="path178" /><path
         d="m 19524.9,19242.6 h -3196.6 v 366.6 h 2300.2 c 403,0 729.7,283.8 729.7,633.9 v 717.9 h 238 l -15.3,-1662.9 c -0.3,-30.6 -25.4,-55.5 -56,-55.5"
         style="fill:#44a1a3;fill-opacity:1;fill-rule:nonzero;stroke:none"
         id="path180" /><path
         d="m 19596.2,20961 h -238 v 127 h 182.6 c 19.3,0 32.3,-9 39.8,-16.6 7.5,-7.6 16.4,-20.6 16.3,-39.9 l -0.7,-70.5"
         style="fill:#99dedf;fill-opacity:1;fill-rule:nonzero;stroke:none"
         id="path182" /><path
         d="m 14823.6,19242.6 h -3311.5 c -30.9,0 -56.1,25.1 -56.1,56 v 443.7 c 51.2,-79.6 146.8,-133.1 256.5,-133.1 h 3111.1 v -366.6"
         style="fill:#44a1a3;fill-opacity:1;fill-rule:nonzero;stroke:none"
         id="path184" /><path
         d="m 14823.6,19052.5 h 1504.7 v 2225.7 h -1504.7 z"
         style="fill:#f4d562;fill-opacity:1;fill-rule:nonzero;stroke:none"
         id="path186" /><path
         d="m 14823.7,20951.2 h 1504.6 v 136.801 h -1504.6 z"
         style="fill:#f3df94;fill-opacity:1;fill-rule:nonzero;stroke:none"
         id="path188" /><path
         d="m 11512.1,21088 c -30.9,0 -56.1,-25.1 -56.1,-56 v -1733.4 c 0,-30.9 25.2,-56 56.1,-56 h 8012.8 c 30.6,0 55.7,24.9 56,55.5 l 16,1733.4 c 0.1,19.3 -8.8,32.3 -16.3,39.9 -7.5,7.6 -20.5,16.6 -39.8,16.6 h -8028.7 m 8012.8,-2225.6 h -8012.8 c -240.5,0 -436.2,195.7 -436.2,436.2 V 21032 c 0,240.5 195.7,436.1 436.2,436.1 h 8028.7 c 117.3,0 227.3,-45.8 309.8,-129.1 82.6,-83.3 127.4,-193.8 126.4,-311 l -16,-1733.4 c -2.2,-238.3 -197.8,-432.2 -436.1,-432.2"
         style="fill:#000000;fill-opacity:1;fill-rule:nonzero;stroke:none"
         id="path190" /><path
         d="m 14823.7,19242.6 h 1504.6 v 370.199 h -1504.6 z"
         style="fill:#cfb450;fill-opacity:1;fill-rule:nonzero;stroke:none"
         id="path192" /><path
         d="m 14823.7,19083.1 h 1504.6 v 159.5 h -1504.6 z"
         style="fill:#3b1a48;fill-opacity:1;fill-rule:nonzero;stroke:none"
         id="path194" /><path
         d="m 15013.6,19242.6 h 1124.6 v 1845.5 h -1124.6 z m 1504.8,-380.2 h -1884.9 v 2605.9 h 1884.9 v -2605.9"
         style="fill:#000000;fill-opacity:1;fill-rule:nonzero;stroke:none"
         id="path196" /><path
         d="m 11116.9,18109.6 c 150.5,465.7 620.1,883.2 620.1,883.2 l 41.4,-926.5 c 0,0 1548.3,589.7 1882,-431.9 341,-1044 503.1,-3298.2 -1923.4,-3080.1 0,0 -1335.7,1341.6 -620.1,3555.3"
         style="fill:#ffffff;fill-opacity:1;fill-rule:nonzero;stroke:none"
         id="path198" /><path
         d="m 12053.6,14539.6 c -100.3,0 -205.6,4.8 -316.5,14.8 0,0 -1101.9,1106.7 -767.8,2968.3 18.9,-377.8 94.3,-709.9 192.3,-991.7 218.6,-628 767.9,-934.3 1316.7,-934.3 594.9,0 1189.2,359.8 1361.3,1059.7 1.8,7.5 3.6,15 5.4,22.5 70.4,-998.6 -247.1,-2139.3 -1791.4,-2139.3"
         style="fill:#cdc6d0;fill-opacity:1;fill-rule:nonzero;stroke:none"
         id="path200" /><path
         d="m 11116.9,18109.6 h 0.5 z m 710.4,-3371.9 c 690.5,-47.9 1192.8,118.5 1493.3,496 517.2,649.6 343.4,1777.6 159.1,2341.7 -58.6,179.6 -164.5,303.9 -323.6,380.1 -494.5,236.9 -1302.2,-63.8 -1310.3,-66.9 -57,-21.6 -120.9,-14.5 -171.8,18.9 -50.9,33.5 -82.8,89.4 -85.5,150.3 l -21,469.8 c -106.6,-137.1 -214.2,-304.7 -269.8,-476.5 -598,-1850.2 312.8,-3060.3 529.6,-3313.4 z m 227.5,-388.3 c -107.6,0 -219.2,5.1 -334.8,15.5 -44.5,4 -86.2,23.6 -117.7,55.2 -57.9,58.2 -1408.9,1450.3 -666.3,3747.9 164.6,509.1 653.9,948.4 674.7,966.8 54.8,48.8 132.7,61.6 200.2,33.1 67.6,-28.5 112.7,-93.4 115.9,-166.6 l 30.4,-680.2 c 327.2,87.6 914,191.7 1362.1,-22.2 254.8,-121.8 430.3,-325.4 521.8,-605.5 258.1,-790.4 354.6,-1970.8 -223.1,-2696.5 -342.7,-430.4 -867.6,-647.5 -1563.2,-647.5"
         style="fill:#000000;fill-opacity:1;fill-rule:nonzero;stroke:none"
         id="path202" /><path
         d="M 24411.5,20340.1 C 22405.8,17994.5 19678,18427 19388.7,18430.5 c -455.9,5.6 -1787.8,-98.5 -2156.8,-961.5 -540.2,-1263.3 9.2,-2392.2 905.2,-2675.1 344.4,-108.8 1141,64.9 1141,64.9 0,0 4764.4,-490.3 5604.5,1995.3 l -471.1,3486"
         style="fill:#ffffff;fill-opacity:1;fill-rule:nonzero;stroke:none"
         id="path204" /><path
         d="m 17292.1,15230.4 c -438.8,490.6 -610.3,1287.2 -269.7,2155.5 8.5,-139.2 25.1,-277.6 50,-412.2 -152.6,-703.9 27.2,-1330.8 395.1,-1742.5 -5.3,-0.1 -10.6,-0.2 -16,-0.2 -52.1,-0.2 -105.3,-0.4 -159.4,-0.6"
         style="fill:#cd242f;fill-opacity:1;fill-rule:nonzero;stroke:none"
         id="path206" /><path
         d="m 18267.6,14758.1 c -116.5,0 -224.2,9.9 -306.3,35.8 -257.7,81.3 -486.6,232.4 -669.2,436.5 54.1,0.2 107.3,0.4 159.4,0.6 5.4,0 10.7,0.1 16,0.2 182.7,-204.5 411.8,-355.9 669.6,-437.3 62,-19.6 138.6,-30 222.6,-33.9 -31.1,-1.3 -61.9,-1.9 -92.1,-1.9"
         style="fill:#a72135;fill-opacity:1;fill-rule:nonzero;stroke:none"
         id="path208" /><path
         d="m 20049.5,14819.7 c -204.6,0 -385,5.2 -532.1,11.7 v 9.1 c 147.4,-9 356.2,-18.5 606.7,-20.5 -25.2,-0.2 -50,-0.3 -74.6,-0.3"
         style="fill:#cdc6d0;fill-opacity:1;fill-rule:nonzero;stroke:none"
         id="path210" /><path
         d="m 19517.4,14831.4 c -120.9,5.4 -219.3,11.8 -289.8,17 32.2,6.4 50.5,10.4 50.5,10.4 0,0 87,-9 239.3,-18.3 v -9.1"
         style="fill:#371a45;fill-opacity:1;fill-rule:nonzero;stroke:none"
         id="path212" /><path
         d="m 18359.7,14760 c -84,3.9 -160.6,14.3 -222.6,33.9 -257.8,81.4 -486.9,232.8 -669.6,437.3 -367.9,411.7 -547.7,1038.6 -395.1,1742.5 111.9,-602.8 392.8,-1129.9 886.8,-1315.9 226.7,-85.3 425.7,-113.3 607.3,-113.3 347,0 630.9,102.1 924.4,102.1 177.1,0 743.3,-112.2 1474.7,-112.2 1058.4,0 2463,235 3536.6,1385.6 24.2,25.8 55.1,37.6 85.7,37.6 55.8,0 110.1,-39.3 118.8,-103.4 -592.1,-1751.8 -3133.6,-2025.4 -4582.6,-2034.2 -250.5,2 -459.3,11.5 -606.7,20.5 -152.3,9.3 -239.3,18.3 -239.3,18.3 0,0 -18.3,-4 -50.5,-10.4 -81.1,6 -125.5,10.6 -125.5,10.6 0,0 -390.2,-85.2 -742.4,-99"
         style="fill:#cdc6d0;fill-opacity:1;fill-rule:nonzero;stroke:none"
         id="path214" /><path
         d="m 24308,20278.3 c -33.4,-57.8 -69.3,-114.2 -106.7,-169.5 -19,-27.5 -37.1,-55.8 -56.9,-82.6 l -62.2,-78.3 c -41.4,-52.5 -84.6,-103.4 -128.9,-153.5 -45.4,-48.9 -92,-96.9 -139.3,-144.2 -46,-48.8 -98.3,-90.6 -148,-135.6 -50.5,-43.8 -101,-87.9 -155,-127.6 -53.4,-40.5 -105.8,-82.3 -160,-121.7 l -165,-115 c -446.1,-297.6 -934.8,-533.9 -1447.8,-691.6 -512.1,-160.2 -1045.5,-246.6 -1579.6,-266.7 -266.8,-11.2 -535.8,-3.5 -799.3,15.9 l -95.9,7 c -34.8,2.4 -47.6,3.2 -82,3 -60.1,-0.1 -121.2,-2.3 -182.3,-5.7 -122.4,-7.2 -244.9,-19.5 -366.1,-37.3 -242,-36.2 -479.7,-94.8 -697,-185.3 -215.9,-91.3 -412.5,-215.8 -547.4,-381 -16.1,-21 -34,-41 -47.8,-63.3 -15.2,-21.6 -29.8,-43.5 -42.1,-66.6 -13.9,-22.3 -25.1,-46 -36.1,-69.8 -11.7,-21.5 -21.7,-52.2 -32.4,-79.7 -20.8,-56.1 -43,-111.9 -63,-168.2 l -48,-171.9 c -55.1,-230.7 -76.5,-467.6 -54.1,-699 22.8,-230.9 86.4,-456.6 196.7,-656.2 109.4,-199.6 263.7,-372.6 450,-496.6 l 34.3,-24.3 c 12,-7.1 24.6,-13.2 36.9,-19.8 l 73.7,-39.7 c 23.9,-15 50.8,-22.9 76.6,-33.4 l 77.9,-30.7 c 80,-28.7 198.8,-33.7 316.6,-31.7 238.1,5.4 493.5,40.4 734.1,86.8 l 33.2,6.4 26.7,-3.1 h 0.2 c 124.2,-9.2 256.9,-13.6 385.9,-18.1 130,-4.4 260.2,-6.6 390.4,-6.6 260.3,-0.2 520.6,8.9 780,23.2 518.4,31.4 1034.4,93.4 1534.8,208.6 250.3,56.9 495.6,129.6 732.6,219.2 236.8,89.6 465.6,197.3 675.1,331.1 210.8,132.5 398.5,292.5 566.2,470.7 169.2,178.3 305.3,383.8 429.8,608.6 l 1.4,2.4 c 25.7,46.5 84.2,63.2 130.6,37.5 36.8,-20.4 54.9,-61.5 48.1,-100.7 -48.5,-275.2 -169.8,-542.2 -341.5,-769.7 -170.3,-229.6 -388.8,-418.6 -622.1,-573.9 -468.3,-313.6 -994.8,-503.4 -1523.8,-632.4 -265,-65.6 -533,-111.7 -801.4,-148.1 -268.5,-36.1 -537.8,-59.6 -807.2,-72.5 -269.3,-14.2 -538.7,-15.4 -807.7,-9.1 -270.2,6.7 -535.3,20.2 -810,51.7 h -0.3 l 60,3.4 c -134.8,-29.6 -263.4,-52.7 -397.1,-72.3 -133.1,-19.1 -267.5,-34.4 -407.1,-39.5 -34.6,-1.6 -70,-2 -106.1,-1.2 -35.3,-0.4 -72.2,1.8 -109.4,4.5 -36.2,1.2 -76.4,8.2 -115,13.4 -38.3,6.8 -86,18 -121.3,29.9 l -103.4,38.7 c -34.3,13.5 -69.6,24.7 -101.5,43.1 l -97.9,50.9 c -16.2,8.7 -32.8,16.9 -48.7,26.1 l -45.6,30.7 c -246.8,159.8 -448.6,382 -590.7,634 -142.4,252.2 -227.7,533.4 -254.6,817 -28.1,283.9 -1.9,569 63,841.3 l 56.1,202 c 23,65.7 48.4,130.4 72.7,195.5 22.3,62.2 55,136.9 93.8,202.5 18.4,33.9 39.4,66 61.4,97.5 20.8,32.4 45.4,61.5 69,91.6 194.8,237.2 451.9,393.5 710.3,503.6 260.8,109 529.8,174.2 799.2,215.1 134.9,20.1 270.1,34.2 406.2,40.8 68.1,3.4 136.3,5.3 205.7,5.1 30.3,0.4 82.2,-2.1 111.9,-4.8 l 97.6,-7.7 c 252.5,-20.3 501.8,-29 752.4,-20.2 500.3,15.4 997.9,93.8 1476.2,235.6 478.8,140.6 934.4,354.3 1352.7,625.7 419.1,275 781.7,612.4 1190.9,929.8 l 1.6,1.3 c 42.1,32.7 102.8,25 135.6,-17.1 24.8,-32 26.3,-74.7 7.2,-107.7"
         style="fill:#000000;fill-opacity:1;fill-rule:nonzero;stroke:none"
         id="path216" /><path
         d="m 22606.9,14953.2 c -20.8,0 -42,3.4 -62.8,10.7 -99,34.6 -151.2,143 -116.6,242.1 750.4,2145 -433,3400.4 -483.7,3452.8 -72.9,75.3 -71.3,195.5 3.7,268.6 75,73.1 194.9,71.9 268.2,-2.9 57.6,-58.9 1401.8,-1468.2 570.6,-3844 -27.4,-78.3 -100.8,-127.3 -179.4,-127.3"
         style="fill:#000000;fill-opacity:1;fill-rule:nonzero;stroke:none"
         id="path218" /><path
         d="m 25935.4,25510.8 c -86.2,0 -170.8,16.1 -251.4,49.9 -456.4,191.5 -609.3,878.5 -341.4,1534.4 220.6,540.2 657.7,890.9 1060.1,890.9 86.2,0 170.8,-16.1 251.3,-49.9 368.9,-154.8 539.5,-633.1 450,-1157.2 -118.4,-295.7 -252.5,-582.2 -401,-858.8 -223.3,-257.5 -503,-409.3 -767.6,-409.3"
         style="fill:#b3b3b3;fill-opacity:1;fill-rule:nonzero;stroke:none"
         id="path220" /><path
         d="m 26703,25920.1 c 148.5,276.6 282.6,563.1 401,858.8 -21.2,-124.4 -57.2,-251.4 -108.5,-377.2 -75.5,-184.9 -176.4,-347.5 -292.5,-481.6"
         style="fill:#958d9d;fill-opacity:1;fill-rule:nonzero;stroke:none"
         id="path222" /><path
         d="m 24475.6,23926.1 c -74.9,0 -148.5,18.8 -214.9,58.7 -231.1,138.8 -287.4,479.4 -125.7,760.8 115.3,200.7 310.2,317 496.4,317 75,0 148.6,-18.8 214.9,-58.7 231.2,-138.8 287.5,-479.4 125.8,-760.8 -115.3,-200.7 -310.3,-317.1 -496.5,-317"
         style="fill:#b3b3b3;fill-opacity:1;fill-rule:nonzero;stroke:none"
         id="path224" /><path
         d="m 15738.4,26176.9 c 0,0 -304.8,3854.6 1890.7,4894.1 973.8,461 2047.9,602.4 2932.6,602.4 1109.8,0 1921.5,-222.4 1864.5,-315 0,0 -3159.4,-110.3 -4867.8,-2315.6 -1317.4,-1700.6 -1820,-2865.9 -1820,-2865.9"
         style="fill:#b3b3b3;fill-opacity:1;fill-rule:nonzero;stroke:none"
         id="path226" /><path
         d="m 10728.9,25527.8 c 341.9,353.5 575.3,817.4 637.6,1343.4 151.2,1276.8 -761.2,2434.4 -2038.04,2585.6 -1276.79,151.2 -2434.41,-761.2 -2585.6,-2038 -151.21,-1276.8 761.26,-2434.4 2038.05,-2585.6 355.14,-42.1 700.96,-1.6 1018.57,105.9 l 998.52,-471.1 -69.1,1059.8"
         style="fill:#d78db3;fill-opacity:1;fill-rule:nonzero;stroke:none"
         id="path228" /><path
         d="m 11169.5,27550.5 c -303.7,772.5 -1011.7,1357.2 -1893.7,1461.7 -92.99,11 -185.27,16.4 -276.65,16.4 -775.35,0 -1480.5,-386.9 -1906.06,-995.4 140.21,310.6 353.93,585.1 629.25,802.1 383.38,302.2 847.16,462.3 1327.93,462.3 85.43,0 171.4,-5.1 257.54,-15.3 570.91,-67.6 1081.29,-353.5 1437.19,-805 217,-275.3 360.7,-592.1 424.5,-926.8"
         style="fill:#e1b2ca;fill-opacity:1;fill-rule:nonzero;stroke:none"
         id="path230" /><path
         d="m 9799.49,25114.8 c 25.69,0 51.32,-5.7 74.97,-16.8 l 728.84,-343.8 -49.7,762.2 c -3.3,49.5 14.5,98 49,133.6 329.8,340.9 533.6,770.3 589.4,1241.9 67.6,570.9 -91.1,1133.9 -447,1585.4 -355.9,451.5 -866.28,737.4 -1437.19,805 -570.94,67.7 -1133.97,-91.1 -1585.47,-447 -451.49,-355.9 -737.38,-866.3 -804.98,-1437.2 -139.57,-1178.5 705.69,-2250.9 1884.21,-2390.4 320.77,-38.1 637.49,-5.1 941.59,97.8 18.32,6.2 37.33,9.3 56.33,9.3 m 998.51,-822.6 c -25.5,0 -51.1,5.6 -74.9,16.8 l -935.77,441.5 c -332.93,-102.3 -678.1,-133.1 -1027.1,-91.9 -1370.95,162.4 -2354.24,1409.9 -2191.89,2780.8 78.67,664.2 411.21,1257.9 936.43,1671.9 525.24,414 1180.2,598.7 1844.38,520 664.15,-78.6 1257.85,-411.2 1671.85,-936.4 414,-525.2 598.7,-1180.2 520,-1844.4 -61.8,-522.3 -279.8,-1000.3 -631.8,-1387.3 l 64.2,-983.8 c 4,-62.1 -25.1,-121.7 -76.5,-156.7 -29.7,-20.2 -64.2,-30.5 -98.9,-30.5"
         style="fill:#000000;fill-opacity:1;fill-rule:nonzero;stroke:none"
         id="path232" /><path
         d="m 10603.3,24754.2 -728.84,343.8 c -23.65,11.1 -49.28,16.8 -74.97,16.8 -19,0 -38.01,-3.1 -56.33,-9.3 -222.49,-75.3 -451.68,-113.1 -684.32,-113.1 -85.34,0 -171.19,5.1 -257.27,15.3 -1118.89,132.5 -1937.38,1105.8 -1897.91,2212.5 194.44,-711.5 678.68,-1340.5 1390.16,-1696.7 386.23,-193.3 796.63,-284.8 1200.96,-284.8 366.78,0 728.62,75.3 1062.62,218.3 l 45.9,-702.8"
         style="fill:#dd6aa5;fill-opacity:1;fill-rule:nonzero;stroke:none"
         id="path234" /><path
         d="m 10798,24468 -998.52,471.1 c -234.64,-79.4 -484.66,-122.3 -742.48,-122.3 -91.16,0 -183.32,5.4 -276.09,16.4 -1276.79,151.2 -2189.26,1308.8 -2038.05,2585.6 14.38,121.5 38.03,239.7 69.89,354.1 11.09,-187.5 41.72,-372.7 90.91,-552.7 -39.47,-1106.7 779.02,-2080 1897.91,-2212.5 86.08,-10.2 171.93,-15.3 257.27,-15.3 232.64,0 461.83,37.8 684.32,113.1 18.32,6.2 37.33,9.3 56.33,9.3 25.69,0 51.32,-5.7 74.97,-16.8 l 728.84,-343.8 -45.9,702.8 c 64.2,27.5 127.2,57.4 189.1,89.8 -5.9,-6.3 -11.6,-12.8 -17.6,-19 L 10798,24468"
         style="fill:#000000;fill-opacity:1;fill-rule:nonzero;stroke:none"
         id="path236" /><path
         d="m 9790.92,27798.8 v 0 c -201.47,201.4 -528.11,165.3 -729.58,-36.1 l -31.35,-31.4 -31.36,31.4 c -201.47,201.4 -528.11,237.5 -729.58,36.1 -201.47,-201.5 -201.47,-528.1 0,-729.6 l 31.36,-31.4 633.4,-633.4 c 53.12,-53.1 139.23,-53.1 192.34,0 l 633.42,633.4 31.35,31.4 c 201.47,201.5 201.47,528.1 0,729.6"
         style="fill:#ffffff;fill-opacity:1;fill-rule:nonzero;stroke:none"
         id="path238" /></g></g></svg>
